<svg id="Layer_1" data-name="Layer 1" xmlns="http://www.w3.org/2000/svg" xmlns:xlink="http://www.w3.org/1999/xlink" viewBox="0 0 60.8 53.11"><defs><style>.cls-1{fill:url(#linear-gradient);}.cls-2{fill:#6d6d6d;}</style><linearGradient id="linear-gradient" x1="12" y1="43.58" x2="35.94" y2="43.58" gradientUnits="userSpaceOnUse"><stop offset="0" stop-color="#404040"/><stop offset="1" stop-color="#595959"/></linearGradient></defs><title>alpha-ai_gray</title><rect class="cls-1" x="9.22" y="34.04" width="35.38" height="19.07" rx="1.61"/><path class="cls-2" d="M684.84,359a1.61,1.61,0,0,0-2.79,0L671.7,376.92a1.6,1.6,0,0,0,0,1.61l18.44,32a1.62,1.62,0,0,0,1.4.81h7.64l13.05-.06a1.62,1.62,0,0,0,1.39-2.42Z" transform="translate(-653.03 -358.17)"/><path class="cls-2" d="M665.19,393a1.61,1.61,0,0,0-2.79,0l-9.15,15.85a1.61,1.61,0,0,0,1.39,2.42H673a1.61,1.61,0,0,0,1.4-2.42Z" transform="translate(-653.03 -358.17)"/></svg>