<svg id="Layer_1" data-name="Layer 1" xmlns="http://www.w3.org/2000/svg" xmlns:xlink="http://www.w3.org/1999/xlink" viewBox="0 0 71.02 73.32"><defs><style>.cls-1{fill:url(#linear-gradient);}.cls-2{fill:#6d6d6d;}.cls-3{font-size:16px;fill:#fff;font-family:FuturaStd-Bold, Futura Std;font-weight:700;}</style><linearGradient id="linear-gradient" x1="19.03" y1="43.58" x2="42.97" y2="43.58" gradientUnits="userSpaceOnUse"><stop offset="0" stop-color="#404040"/><stop offset="1" stop-color="#595959"/></linearGradient></defs><title>alpha-ai_gray_text</title><rect class="cls-1" x="16.25" y="34.04" width="35.38" height="19.07" rx="1.61"/><path class="cls-2" d="M38.84,1a1.61,1.61,0,0,0-2.79,0L25.7,18.92a1.6,1.6,0,0,0,0,1.61L44.14,52.48a1.62,1.62,0,0,0,1.4.81h7.64l13.05-.06a1.62,1.62,0,0,0,1.39-2.42Z" transform="translate(0 -0.17)"/><path class="cls-2" d="M19.19,35a1.61,1.61,0,0,0-2.79,0L7.25,50.87a1.61,1.61,0,0,0,1.39,2.42H27a1.61,1.61,0,0,0,1.4-2.42Z" transform="translate(0 -0.17)"/><text y="-0.17"/><text class="cls-3" transform="translate(0.06 69.1)">Alpha.ai</text></svg>