<svg id="Layer_1" data-name="Layer 1" xmlns="http://www.w3.org/2000/svg" xmlns:xlink="http://www.w3.org/1999/xlink" viewBox="0 0 61.02 53.31"><defs><style>.cls-1{fill:url(#linear-gradient);}.cls-2{fill:url(#linear-gradient-2);}.cls-3{fill:url(#linear-gradient-3);}</style><linearGradient id="linear-gradient" x1="42.19" y1="43.74" x2="22.19" y2="43.74" gradientUnits="userSpaceOnUse"><stop offset="0" stop-color="#ffe262"/><stop offset="1" stop-color="#f9981c"/></linearGradient><linearGradient id="linear-gradient-2" x1="21.39" y1="16.55" x2="63.61" y2="48.87" xlink:href="#linear-gradient"/><linearGradient id="linear-gradient-3" x1="2.66" y1="41.02" x2="44.88" y2="73.34" xlink:href="#linear-gradient"/></defs><title>alpha-ai_color</title><rect class="cls-1" x="9.19" y="34.16" width="35.51" height="19.14" rx="1.62"/><path class="cls-2" d="M46.31,53.31l13.1-.06a1.62,1.62,0,0,0,1.4-2.43L31.93.81a1.61,1.61,0,0,0-2.8,0l-10.4,18a1.67,1.67,0,0,0,0,1.62L37.25,52.5a1.62,1.62,0,0,0,1.4.81Z"/><path class="cls-3" d="M21.39,50.88,12.2,35a1.61,1.61,0,0,0-2.79,0L.22,50.88a1.62,1.62,0,0,0,1.4,2.43H20A1.62,1.62,0,0,0,21.39,50.88Z"/></svg>