<svg id="Layer_1" data-name="Layer 1" xmlns="http://www.w3.org/2000/svg" viewBox="0 0 759.52 285"><defs><style>.cls-1{fill:#33c69f;}.cls-2{fill:#0a1b2b;}.cls-3{font-size:21px;fill:#fff;font-family:FuturaStd-Book, Futura Std;}.cls-4{letter-spacing:0.04em;}</style></defs><title>alpha-ai_embedded</title><circle class="cls-1" cx="124.46" cy="141.56" r="91"/><path class="cls-2" d="M69.86,161.55a2.52,2.52,0,0,0,2.52,2.52h6v-5h-6A2.52,2.52,0,0,0,69.86,161.55Z"/><path class="cls-2" d="M69.86,134.58a2.53,2.53,0,0,0,2.53,2.49h6v-5h-6A2.53,2.53,0,0,0,69.86,134.58Z"/><path class="cls-2" d="M69.86,148.55a2.54,2.54,0,0,0,2.53,2.52h6v-5h-6A2.52,2.52,0,0,0,69.86,148.55Z"/><path class="cls-2" d="M70.37,120.53v.16a2.39,2.39,0,0,0,2.39,2.38h5.61v-5H72.75A2.42,2.42,0,0,0,70.37,120.53Z"/><rect class="cls-2" x="79.37" y="131.07" width="6" height="8"/><rect class="cls-2" x="79.37" y="144.07" width="6" height="8"/><rect class="cls-2" x="79.37" y="117.07" width="6" height="8"/><path class="cls-2" d="M106.37,91.41A2.43,2.43,0,0,0,104,88.87a2.46,2.46,0,0,0-2.66,2.23,1.6,1.6,0,0,0,0,.31v5.66h5Z"/><path class="cls-2" d="M179.06,134.71A2.54,2.54,0,0,0,176.7,132h-.33v0h-6v5h6A2.53,2.53,0,0,0,179.06,134.71Z"/><path class="cls-2" d="M178.44,119.19a2.27,2.27,0,0,0-2-1.12h-6v5h5.93A2.54,2.54,0,0,0,178.44,119.19Z"/><path class="cls-2" d="M147.37,91.41A2.43,2.43,0,0,0,145,88.87a2.46,2.46,0,0,0-2.66,2.23,1.6,1.6,0,0,0,0,.31v5.66h5Z"/><path class="cls-2" d="M133.37,91.41A2.43,2.43,0,0,0,131,88.87a2.46,2.46,0,0,0-2.66,2.23,1.6,1.6,0,0,0,0,.31v5.66h5Z"/><path class="cls-2" d="M120.37,91.41A2.43,2.43,0,0,0,118,88.87a2.46,2.46,0,0,0-2.66,2.23,1.6,1.6,0,0,0,0,.31v5.66h5Z"/><rect class="cls-2" x="79.37" y="158.07" width="6" height="8"/><path class="cls-2" d="M101.37,191.72a2.44,2.44,0,0,0,2.34,2.54,2.47,2.47,0,0,0,2.66-2.23,1.6,1.6,0,0,0,0-.31v-5.65h-5Z"/><rect class="cls-2" x="163.37" y="131.07" width="6" height="8"/><rect class="cls-2" x="163.37" y="144.07" width="6" height="8"/><path class="cls-2" d="M176.63,146.07h-6.26v5h5.93a2.51,2.51,0,1,0,.33-5Z"/><path class="cls-2" d="M176.63,159.07h-6.26v5h5.93a2.51,2.51,0,1,0,.33-5Z"/><rect class="cls-2" x="163.37" y="158.07" width="6" height="8"/><rect class="cls-2" x="163.37" y="117.07" width="6" height="8"/><path class="cls-2" d="M142.37,191.72a2.44,2.44,0,0,0,2.34,2.54,2.47,2.47,0,0,0,2.66-2.23,1.6,1.6,0,0,0,0-.31v-5.65h-5Z"/><path class="cls-2" d="M149.37,105.8V98.07h-9v8h-5v-8h-9v8h-5v-8h-8v8h-5v-8h-9v7.73a13.33,13.33,0,0,0-11,13.23V164.1a13.35,13.35,0,0,0,11,13.24v7.73h9v-8h5v8h8v-8h5v8h9v-8h5v8h9v-7.73a13.35,13.35,0,0,0,11-13.24V119A13.33,13.33,0,0,0,149.37,105.8Zm-16,48.49s-1.26,2.72-2.76,2.72-3.24-2.72-3.24-2.72v-5.22H111.23a2.61,2.61,0,0,1-2.82-2.35,2.55,2.55,0,0,1,2.49-2.65h16.47v-1.5c.18-5.72-4.6-10.49-10.67-10.66s-11.15,4.33-11.33,10c0,.2,0,.41,0,.62v11.82a2.5,2.5,0,0,1-5,0v-12a16.5,16.5,0,0,1,33,0Zm13-1a2.5,2.5,0,0,1-5,0v-23.7a2.5,2.5,0,0,1,5,0Z"/><path class="cls-2" d="M115.37,191.72a2.44,2.44,0,0,0,2.34,2.54,2.47,2.47,0,0,0,2.66-2.23,1.6,1.6,0,0,0,0-.31v-5.65h-5Z"/><path class="cls-2" d="M128.37,191.72a2.44,2.44,0,0,0,2.34,2.54,2.47,2.47,0,0,0,2.66-2.23,1.6,1.6,0,0,0,0-.31v-5.65h-5Z"/><circle class="cls-1" cx="668.52" cy="141.56" r="91"/><path class="cls-2" d="M606.15,136.36a5.6,5.6,0,1,0,5.6,5.59A5.59,5.59,0,0,0,606.15,136.36Zm0,9.35a3.76,3.76,0,0,1-.11-7.51h0c2.2,0,3.87,1.68,3.35,3.74v0A3.08,3.08,0,0,1,606.12,145.71Z"/><path class="cls-2" d="M614.23,113.1a13.9,13.9,0,1,0-13.89-13.91A13.91,13.91,0,0,0,614.23,113.1Zm0-26a12.06,12.06,0,1,1-12.05,12.07A12.07,12.07,0,0,1,614.23,87.14Z"/><path class="cls-2" d="M614.23,104.8a5.6,5.6,0,1,0-5.59-5.6A5.62,5.62,0,0,0,614.23,104.8Zm0-9.35a3.76,3.76,0,1,1-3.75,3.75A3.77,3.77,0,0,1,614.23,95.45Z"/><path class="cls-2" d="M614.23,178.34a5.59,5.59,0,1,0,5.6,5.59A5.59,5.59,0,0,0,614.23,178.34Zm-.64,9.26a3.72,3.72,0,0,1-2.85-2.85,3.76,3.76,0,0,1,3.66-4.58v0a3.75,3.75,0,1,1-.81,7.4Z"/><path class="cls-2" d="M730,128a14,14,0,0,0-13.2,13,.86.86,0,0,0-.59-.17h-7.78a40.5,40.5,0,0,0-18.2-32.67l2.09-3.88A8.72,8.72,0,0,1,700,99.66h7.67a.43.43,0,0,0,.16,0,.85.85,0,0,0,.71-.55s0,.06,0,.09a14.42,14.42,0,1,0,0-.55.84.84,0,0,0-.89-.67H700a10.43,10.43,0,0,0-9.21,5.5l-2,3.76a40.31,40.31,0,0,0-41-.33l-1.85-3.43a10.4,10.4,0,0,0-9.2-5.5H629a.84.84,0,0,0,0,1.68h7.67a8.76,8.76,0,0,1,7.67,4.61l1.89,3.54a40.67,40.67,0,0,0-18.81,32.61v.4h-7.21a13.86,13.86,0,1,0,0,1.66l.15,0h7a40.47,40.47,0,0,0,18.17,33.29l-1.29,2.42a8.75,8.75,0,0,1-7.67,4.6h-7.94a.82.82,0,0,0-.58.33,13.78,13.78,0,1,0,0,1.06.81.81,0,0,0,.55.29h7.94a10.4,10.4,0,0,0,9.14-5.49l1.24-2.31a40.42,40.42,0,0,0,43.17-.83l1.62,3a10.63,10.63,0,0,0,9.42,5.6h7.35a13.86,13.86,0,1,0,0-1.68h-7.44a8.91,8.91,0,0,1-7.85-4.71l-1.72-3.21a40.52,40.52,0,0,0,16.88-32.39h7.92a.89.89,0,0,0,.41-.18,13.9,13.9,0,0,0,27.79-.38h0A13.91,13.91,0,0,0,730,128Zm-7.58-40.9a12.06,12.06,0,1,1-12,12.07A12.07,12.07,0,0,1,722.43,87.14ZM605.43,154a12.07,12.07,0,0,1,.58-24.12h0a12.06,12.06,0,1,1-.58,24.11Zm8.42,42a12.06,12.06,0,0,1,.55-24.1h0a12.06,12.06,0,1,1-.55,24.11Zm108.9-24.1h0a12.06,12.06,0,1,1-12,12.64A12.07,12.07,0,0,1,722.75,171.87Zm-32,1.48-3.6-6.73a.87.87,0,0,0-1.52.79l3.71,6.91a38.51,38.51,0,0,1-41.43.64l3.85-7.17h0a.84.84,0,1,0-1.48-.8l-3.78,7.05a38.76,38.76,0,0,1-17.08-30.55c0-.34,0-.67,0-1h3.39a.84.84,0,0,0,0-1.68h-3.38a38.64,38.64,0,0,1,17.71-31.33l3.61,6.77a.85.85,0,0,0,.77.45.82.82,0,0,0,.46-.1.84.84,0,0,0,.35-1.13l-3.71-6.9a38.59,38.59,0,0,1,39.32.23l-3.58,6.67a.8.8,0,0,0-.1.43.82.82,0,0,0,.86.8.85.85,0,0,0,.75-.44l3.52-6.55a38.71,38.71,0,0,1,17.37,31.1h-3.1a.84.84,0,0,0,.16,1.68h3A38.62,38.62,0,0,1,690.76,173.36ZM742.06,142a11.77,11.77,0,1,1-11.75-11.77h0a11.77,11.77,0,0,1,11.75,11.75Z"/><path class="cls-2" d="M730.48,136.36a5.6,5.6,0,1,0,5.59,5.59A5.6,5.6,0,0,0,730.48,136.36Zm-1,9.26a3.75,3.75,0,0,1,.82-7.42h0a3.75,3.75,0,1,1-.82,7.41Z"/><path class="cls-2" d="M722.43,104.8a5.6,5.6,0,1,0-5.59-5.6A5.6,5.6,0,0,0,722.43,104.8Zm0-9.35a3.76,3.76,0,1,1-3.75,3.75A3.77,3.77,0,0,1,722.43,95.45Z"/><path class="cls-2" d="M722.43,189.52a5.59,5.59,0,1,0-5.59-5.59A5.59,5.59,0,0,0,722.43,189.52Zm0-9.32a3.76,3.76,0,1,1-3.75,3.75A3.77,3.77,0,0,1,722.43,180.2Z"/><path class="cls-2" d="M687.27,133a12.37,12.37,0,0,0-12.12-10.08,12.21,12.21,0,0,0-6.83,2.06,12.22,12.22,0,0,0-6.84-2.06A12.37,12.37,0,0,0,649.36,133a14.16,14.16,0,0,0,3.2,28h31.51a14.16,14.16,0,0,0,3.2-28ZM684,158.45h-31.5A12.32,12.32,0,0,1,650.3,134a.92.92,0,0,0,.74-.79,10.55,10.55,0,0,1,10.44-9.1,10.36,10.36,0,0,1,6.28,2,.92.92,0,0,0,1,0,17.55,17.55,0,0,1,1.64-1,10.55,10.55,0,0,1,15.13,8.06.91.91,0,0,0,.75.79A12.32,12.32,0,0,1,684,158.45Z"/><path class="cls-2" d="M678.22,136.32a.92.92,0,0,0-1.28.26L665.5,150.85,660,144.93a.92.92,0,0,0-1.35,1.26l6.28,6.72a.93.93,0,0,0,.67.3l0,0a.94.94,0,0,0,.68-.34l12.12-15.12a1.13,1.13,0,0,0,.1-.13A.91.91,0,0,0,678.22,136.32Z"/><path class="cls-2" d="M646.09,95.6a6,6,0,1,0-6-6A6,6,0,0,0,646.09,95.6Zm0-10.18a4.2,4.2,0,1,1-4.2,4.2A4.2,4.2,0,0,1,646.09,85.42Z"/><path class="cls-2" d="M690.71,95.6a6,6,0,0,0,6-6h0a6,6,0,0,0-6.11-6,6.1,6.1,0,0,0-5.92,5.94A6,6,0,0,0,690.71,95.6Zm-.19-10.18a4.2,4.2,0,1,1-4.2,4.2A4.2,4.2,0,0,1,690.52,85.42Z"/><path class="cls-2" d="M668.05,92.24a6.84,6.84,0,0,0,6.82-6.83h0a6.84,6.84,0,1,0-6.82,6.84Zm.27-11.82a5,5,0,1,1-5,5A5,5,0,0,1,668.32,80.42Z"/><path class="cls-2" d="M690,187.53a6,6,0,1,0,3.07,11.53,5.88,5.88,0,0,0,3.64-5.53v0A6,6,0,0,0,690,187.53Zm-.08,10.11a4.2,4.2,0,0,1,.91-8.3v0a4.19,4.19,0,1,1-.91,8.27Z"/><path class="cls-2" d="M645.49,187.53a6,6,0,1,0,3.06,11.54,5.91,5.91,0,0,0,3.65-5.54v0A6,6,0,0,0,645.49,187.53Zm-.09,10.11a4.2,4.2,0,0,1,.92-8.3v0a4.19,4.19,0,1,1-.92,8.27Z"/><path class="cls-2" d="M666.66,191a6.84,6.84,0,1,0,8.21,6.7h0A6.84,6.84,0,0,0,666.66,191Zm0,11.57a4.78,4.78,0,0,1-3-3,5,5,0,0,1,4.67-6.72h.19a4.7,4.7,0,0,1,4.35,2.74A5,5,0,0,1,666.62,202.59Z"/><circle class="cls-1" cx="241.56" cy="142.39" r="13.5"/><circle class="cls-1" cx="280.56" cy="142.39" r="13.5"/><circle class="cls-1" cx="319.56" cy="142.39" r="13.5"/><circle class="cls-1" cx="358.56" cy="142.39" r="13.5"/><circle class="cls-1" cx="397.56" cy="142.39" r="13.5"/><circle class="cls-1" cx="436.56" cy="142.39" r="13.5"/><circle class="cls-1" cx="475.56" cy="142.39" r="13.5"/><circle class="cls-1" cx="514.56" cy="142.39" r="13.5"/><circle class="cls-1" cx="553.56" cy="142.39" r="13.5"/><circle class="cls-1" cx="279.56" cy="37.5" r="37.5"/><circle class="cls-1" cx="514.56" cy="247.5" r="37.5"/><circle class="cls-1" cx="396.56" cy="37.5" r="37.5"/><circle class="cls-1" cx="358.56" cy="247.5" r="37.5"/><circle class="cls-1" cx="280.56" cy="102" r="13.5"/><circle class="cls-1" cx="397.56" cy="102.5" r="13.5"/><circle class="cls-1" cx="358.56" cy="182.5" r="13.5"/><circle class="cls-1" cx="514.56" cy="182.5" r="13.5"/><text class="cls-3" transform="translate(0 268.11)">Edge &amp; Embedded Devices</text><text class="cls-3" transform="translate(602.72 268.11)">Se<tspan class="cls-4" x="22.64" y="0">r</tspan><tspan x="30.51" y="0">ver &amp; Cloud</tspan></text></svg>