<svg id="Layer_1" data-name="Layer 1" xmlns="http://www.w3.org/2000/svg" xmlns:xlink="http://www.w3.org/1999/xlink" viewBox="0 0 181.13 150"><defs><style>.cls-1{fill:url(#New_Gradient_Swatch_31);}.cls-2{fill:url(#New_Gradient_Swatch_31-2);}.cls-3{fill:url(#New_Gradient_Swatch_31-3);}.cls-4{fill:url(#New_Gradient_Swatch_31-4);}.cls-5{fill:url(#New_Gradient_Swatch_31-5);}.cls-6{fill:url(#New_Gradient_Swatch_31-6);}.cls-7{fill:url(#New_Gradient_Swatch_31-7);}.cls-8{fill:url(#New_Gradient_Swatch_31-8);}.cls-9{fill:url(#New_Gradient_Swatch_31-9);}.cls-10{fill:url(#New_Gradient_Swatch_31-10);}.cls-11{fill:url(#New_Gradient_Swatch_31-11);}.cls-12{fill:url(#New_Gradient_Swatch_31-12);}.cls-13{fill:url(#New_Gradient_Swatch_31-13);}.cls-14{fill:url(#New_Gradient_Swatch_31-14);}.cls-15{fill:url(#New_Gradient_Swatch_31-15);}.cls-16{fill:url(#New_Gradient_Swatch_31-16);}.cls-17{fill:url(#New_Gradient_Swatch_31-17);}.cls-18{fill:url(#New_Gradient_Swatch_31-18);}.cls-19{fill:url(#New_Gradient_Swatch_31-19);}.cls-20{fill:url(#New_Gradient_Swatch_31-20);}.cls-21{fill:url(#New_Gradient_Swatch_31-21);}.cls-22{fill:url(#New_Gradient_Swatch_31-22);}.cls-23{fill:url(#New_Gradient_Swatch_31-23);}.cls-24{fill:url(#New_Gradient_Swatch_31-24);}.cls-25{fill:url(#New_Gradient_Swatch_31-25);}.cls-26{fill:url(#New_Gradient_Swatch_31-26);}.cls-27{fill:url(#New_Gradient_Swatch_31-27);}</style><linearGradient id="New_Gradient_Swatch_31" x1="77.15" y1="173.08" x2="31.88" y2="51.21" gradientUnits="userSpaceOnUse"><stop offset="0" stop-color="#7048e8"/><stop offset="0.31" stop-color="#0080ff"/><stop offset="0.36" stop-color="#018aff"/><stop offset="0.66" stop-color="#08c5ff"/><stop offset="0.88" stop-color="#0be9ff"/><stop offset="1" stop-color="#0df7ff"/></linearGradient><linearGradient id="New_Gradient_Swatch_31-2" x1="55.76" y1="181.03" x2="10.49" y2="59.15" xlink:href="#New_Gradient_Swatch_31"/><linearGradient id="New_Gradient_Swatch_31-3" x1="55.76" y1="181.03" x2="10.49" y2="59.15" xlink:href="#New_Gradient_Swatch_31"/><linearGradient id="New_Gradient_Swatch_31-4" x1="78.17" y1="172.7" x2="32.91" y2="50.83" xlink:href="#New_Gradient_Swatch_31"/><linearGradient id="New_Gradient_Swatch_31-5" x1="104.44" y1="162.95" x2="59.17" y2="41.07" xlink:href="#New_Gradient_Swatch_31"/><linearGradient id="New_Gradient_Swatch_31-6" x1="80.83" y1="171.72" x2="35.56" y2="49.84" xlink:href="#New_Gradient_Swatch_31"/><linearGradient id="New_Gradient_Swatch_31-7" x1="80.83" y1="171.72" x2="35.56" y2="49.84" xlink:href="#New_Gradient_Swatch_31"/><linearGradient id="New_Gradient_Swatch_31-8" x1="47.9" y1="183.95" x2="2.64" y2="62.07" xlink:href="#New_Gradient_Swatch_31"/><linearGradient id="New_Gradient_Swatch_31-9" x1="47.9" y1="183.95" x2="2.64" y2="62.07" xlink:href="#New_Gradient_Swatch_31"/><linearGradient id="New_Gradient_Swatch_31-10" x1="164.42" y1="140.67" x2="119.15" y2="18.79" xlink:href="#New_Gradient_Swatch_31"/><linearGradient id="New_Gradient_Swatch_31-11" x1="185.84" y1="132.71" x2="140.58" y2="10.84" xlink:href="#New_Gradient_Swatch_31"/><linearGradient id="New_Gradient_Swatch_31-12" x1="185.84" y1="132.71" x2="140.58" y2="10.84" xlink:href="#New_Gradient_Swatch_31"/><linearGradient id="New_Gradient_Swatch_31-13" x1="137.72" y1="150.59" x2="92.45" y2="28.71" xlink:href="#New_Gradient_Swatch_31"/><linearGradient id="New_Gradient_Swatch_31-14" x1="163.15" y1="141.14" x2="117.88" y2="19.27" xlink:href="#New_Gradient_Swatch_31"/><linearGradient id="New_Gradient_Swatch_31-15" x1="194.01" y1="129.68" x2="148.74" y2="7.8" xlink:href="#New_Gradient_Swatch_31"/><linearGradient id="New_Gradient_Swatch_31-16" x1="194" y1="129.68" x2="148.74" y2="7.81" xlink:href="#New_Gradient_Swatch_31"/><linearGradient id="New_Gradient_Swatch_31-17" x1="161.08" y1="141.91" x2="115.81" y2="20.03" xlink:href="#New_Gradient_Swatch_31"/><linearGradient id="New_Gradient_Swatch_31-18" x1="161.08" y1="141.91" x2="115.81" y2="20.03" xlink:href="#New_Gradient_Swatch_31"/><linearGradient id="New_Gradient_Swatch_31-19" x1="120.59" y1="156.95" x2="75.32" y2="35.07" xlink:href="#New_Gradient_Swatch_31"/><linearGradient id="New_Gradient_Swatch_31-20" x1="119.07" y1="157.51" x2="73.81" y2="35.64" xlink:href="#New_Gradient_Swatch_31"/><linearGradient id="New_Gradient_Swatch_31-21" x1="121.19" y1="156.72" x2="75.93" y2="34.85" xlink:href="#New_Gradient_Swatch_31"/><linearGradient id="New_Gradient_Swatch_31-22" x1="117.9" y1="157.95" x2="72.63" y2="36.07" xlink:href="#New_Gradient_Swatch_31"/><linearGradient id="New_Gradient_Swatch_31-23" x1="164.41" y1="140.67" x2="119.14" y2="18.8" xlink:href="#New_Gradient_Swatch_31"/><linearGradient id="New_Gradient_Swatch_31-24" x1="142.78" y1="148.71" x2="97.51" y2="26.83" xlink:href="#New_Gradient_Swatch_31"/><linearGradient id="New_Gradient_Swatch_31-25" x1="124.01" y1="155.68" x2="78.74" y2="33.8" xlink:href="#New_Gradient_Swatch_31"/><linearGradient id="New_Gradient_Swatch_31-26" x1="77.5" y1="172.95" x2="32.23" y2="51.08" xlink:href="#New_Gradient_Swatch_31"/><linearGradient id="New_Gradient_Swatch_31-27" x1="99.13" y1="164.92" x2="53.86" y2="43.04" xlink:href="#New_Gradient_Swatch_31"/></defs><title>alpha-ai_cloud</title><path class="cls-1" d="M49,76.61H32.83a1.1,1.1,0,1,1,0-2.19H49a1.1,1.1,0,0,1,0,2.19Z"/><path class="cls-2" d="M16.55,92A16.56,16.56,0,1,1,33.1,75.46,16.58,16.58,0,0,1,16.55,92Zm0-30.92A14.37,14.37,0,1,0,30.92,75.46,14.37,14.37,0,0,0,16.55,61.1Z"/><path class="cls-3" d="M16.55,82.12a6.66,6.66,0,1,1,6.66-6.66A6.66,6.66,0,0,1,16.55,82.12Zm0-11.13A4.47,4.47,0,1,0,21,75.46,4.48,4.48,0,0,0,16.55,71Z"/><path class="cls-4" d="M52.45,126.53H42.1a1.1,1.1,0,0,1,0-2.19H52.45a11.38,11.38,0,0,0,10-6l7.82-14.61a1.1,1.1,0,0,1,1.49-.44,1.09,1.09,0,0,1,.44,1.48l-7.83,14.6A13.55,13.55,0,0,1,52.45,126.53Z"/><path class="cls-5" d="M71.83,47.88a1.09,1.09,0,0,1-1-.58L62.48,31.66a11.41,11.41,0,0,0-10-6h-10a1.1,1.1,0,0,1,0-2.19h10a13.55,13.55,0,0,1,12,7.17l8.4,15.64a1.1,1.1,0,0,1-.45,1.48A1.06,1.06,0,0,1,71.83,47.88Z"/><path class="cls-6" d="M26.17,41.11A16.55,16.55,0,1,1,42.73,24.56,16.57,16.57,0,0,1,26.17,41.11Zm0-30.91A14.36,14.36,0,1,0,40.54,24.56,14.37,14.37,0,0,0,26.17,10.2Z"/><path class="cls-7" d="M26.17,31.22a6.66,6.66,0,1,1,6.66-6.66A6.67,6.67,0,0,1,26.17,31.22Zm0-11.13a4.47,4.47,0,1,0,4.47,4.47A4.48,4.48,0,0,0,26.17,20.09Z"/><path class="cls-8" d="M26.17,142a16.55,16.55,0,1,1,16.56-16.55A16.57,16.57,0,0,1,26.17,142Zm0-30.91a14.36,14.36,0,1,0,14.37,14.36A14.37,14.37,0,0,0,26.17,111.08Z"/><path class="cls-9" d="M26.17,132.1a6.66,6.66,0,1,1,6.66-6.66A6.67,6.67,0,0,1,26.17,132.1Zm0-11.13a4.47,4.47,0,1,0,4.47,4.47A4.48,4.48,0,0,0,26.17,121Z"/><path class="cls-10" d="M148.3,76.61H132.14a1.1,1.1,0,1,1,0-2.19H148.3a1.1,1.1,0,1,1,0,2.19Z"/><path class="cls-11" d="M164.58,92a16.56,16.56,0,1,1,16.55-16.56A16.57,16.57,0,0,1,164.58,92Zm0-30.92a14.37,14.37,0,1,0,14.36,14.36A14.37,14.37,0,0,0,164.58,61.1Z"/><path class="cls-12" d="M164.58,82.12a6.66,6.66,0,1,1,6.66-6.66A6.66,6.66,0,0,1,164.58,82.12Zm0-11.13a4.47,4.47,0,1,0,4.47,4.47A4.48,4.48,0,0,0,164.58,71Z"/><path class="cls-13" d="M139,126.53H128.68a13.56,13.56,0,0,1-12-7.14l-7.83-14.61a1.1,1.1,0,0,1,1.93-1l7.83,14.61a11.36,11.36,0,0,0,10,6H139a1.1,1.1,0,0,1,0,2.19Z"/><path class="cls-14" d="M109.3,47.88a1.09,1.09,0,0,1-1-1.61l8.39-15.64a13.57,13.57,0,0,1,12-7.17h10a1.1,1.1,0,1,1,0,2.19h-10a11.38,11.38,0,0,0-10,6L110.27,47.3A1.1,1.1,0,0,1,109.3,47.88Z"/><path class="cls-15" d="M155,41.11a16.55,16.55,0,1,1,16.55-16.55A16.56,16.56,0,0,1,155,41.11Zm0-30.91a14.36,14.36,0,1,0,14.37,14.36A14.37,14.37,0,0,0,155,10.2Z"/><path class="cls-16" d="M155,31.22a6.66,6.66,0,1,1,6.66-6.66A6.67,6.67,0,0,1,155,31.22Zm0-11.13a4.47,4.47,0,1,0,4.47,4.47A4.48,4.48,0,0,0,155,20.09Z"/><path class="cls-17" d="M155,142a16.55,16.55,0,1,1,16.55-16.55A16.56,16.56,0,0,1,155,142Zm0-30.91a14.36,14.36,0,1,0,14.37,14.36A14.37,14.37,0,0,0,155,111.08Z"/><path class="cls-18" d="M155,132.1a6.66,6.66,0,1,1,6.66-6.66A6.67,6.67,0,0,1,155,132.1ZM155,121a4.47,4.47,0,1,0,4.47,4.47A4.48,4.48,0,0,0,155,121Z"/><path class="cls-19" d="M90.35,123.77A48.26,48.26,0,1,1,138.6,75.52,48.31,48.31,0,0,1,90.35,123.77Zm0-94.32a46.07,46.07,0,1,0,46.06,46.07A46.13,46.13,0,0,0,90.35,29.45Z"/><path class="cls-20" d="M109.32,97.63H71.81A16.87,16.87,0,0,1,68,64.33a14.73,14.73,0,0,1,14.43-12,14.57,14.57,0,0,1,8.14,2.46,14.53,14.53,0,0,1,8.13-2.46,14.73,14.73,0,0,1,14.43,12,16.87,16.87,0,0,1-3.81,33.3ZM82.43,54.56A12.54,12.54,0,0,0,70,65.4a1.09,1.09,0,0,1-.88.93,14.68,14.68,0,0,0,2.65,29.11h37.51A14.68,14.68,0,0,0,112,66.33a1.09,1.09,0,0,1-.89-.93A12.51,12.51,0,0,0,91.22,57a1.1,1.1,0,0,1-1.31,0A12.4,12.4,0,0,0,82.43,54.56Z"/><path class="cls-21" d="M87.27,88.86a1.11,1.11,0,0,1-.8-.35l-7.47-8A1.09,1.09,0,0,1,80.6,79l6.61,7.06,13.63-17a1.1,1.1,0,1,1,1.71,1.37l-14.43,18a1.13,1.13,0,0,1-.81.41Z"/><path class="cls-22" d="M64.1,20.27a7.16,7.16,0,1,1,7.16-7.16A7.16,7.16,0,0,1,64.1,20.27Zm0-12.12a5,5,0,1,0,5,5A5,5,0,0,0,64.1,8.15Z"/><path class="cls-23" d="M117,20.27a7.16,7.16,0,1,1,7.15-7.16A7.17,7.17,0,0,1,117,20.27Zm0-12.12a5,5,0,1,0,5,5A5,5,0,0,0,117,8.15Z"/><path class="cls-24" d="M90.57,16.27A8.14,8.14,0,1,1,98.7,8.14,8.15,8.15,0,0,1,90.57,16.27Zm0-14.08a6,6,0,1,0,6,6A6,6,0,0,0,90.57,2.19Z"/><path class="cls-25" d="M117,144a7.16,7.16,0,1,1,7.15-7.15A7.16,7.16,0,0,1,117,144Zm0-12.12a5,5,0,1,0,5,5A5,5,0,0,0,117,131.92Z"/><path class="cls-26" d="M64.1,144a7.16,7.16,0,1,1,7.16-7.15A7.16,7.16,0,0,1,64.1,144Zm0-12.12a5,5,0,1,0,5,5A5,5,0,0,0,64.1,131.92Z"/><path class="cls-27" d="M90.57,150a8.14,8.14,0,1,1,8.13-8.14A8.15,8.15,0,0,1,90.57,150Zm0-14.08a5.95,5.95,0,1,0,6,5.94A5.95,5.95,0,0,0,90.57,135.92Z"/></svg>