<svg id="Layer_1" data-name="Layer 1" xmlns="http://www.w3.org/2000/svg" xmlns:xlink="http://www.w3.org/1999/xlink" viewBox="0 0 108.24 105"><defs><style>.cls-1{fill:url(#linear-gradient);}.cls-2{fill:#0a1b2b;}</style><linearGradient id="linear-gradient" x1="44.52" y1="106.97" x2="63.72" y2="-1.97" gradientUnits="userSpaceOnUse"><stop offset="0" stop-color="#7048e8"/><stop offset="0.31" stop-color="#0080ff"/><stop offset="0.36" stop-color="#018aff"/><stop offset="0.66" stop-color="#08c5ff"/><stop offset="0.88" stop-color="#0be9ff"/><stop offset="1" stop-color="#0df7ff"/></linearGradient></defs><title>alpha-ai_processor</title><path class="cls-1" d="M90,30V75A13.42,13.42,0,0,1,78.77,88.22v7.71H70.55V88.4H65.08v7.53H56.85V88.4H51.39v7.53H43.16V88.4H37.69v7.53H29.47V88.22A13.42,13.42,0,0,1,18.22,75V30A13.4,13.4,0,0,1,29.47,16.79V9.07h8.22V16.6h5.47V9.07h8.23V16.6h5.46V9.07h8.23V16.6h5.47V9.07h8.22v7.72A13.4,13.4,0,0,1,90,30ZM108.24,32a2.38,2.38,0,0,0-2.39-2.38h-5.66v4.77h5.66A2.39,2.39,0,0,0,108.24,32ZM92.72,36.07h6.45V27.85H92.72Zm13.13,7.2h-5.66V48h5.66a2.39,2.39,0,1,0,0-4.77Zm-13.13,6.5h6.45V41.54H92.72ZM105.85,57h-5.66v4.77h5.66a2.39,2.39,0,1,0,0-4.77Zm-13.13,6.5h6.45V55.23H92.72Zm13.13,7.19h-5.66v4.77h5.66a2.39,2.39,0,1,0,0-4.77Zm-13.13,6.5h6.45V68.93H92.72ZM0,73a2.38,2.38,0,0,0,2.39,2.38H8.05V70.65H2.39A2.39,2.39,0,0,0,0,73Zm9.07,4.11h6.45V68.93H9.07ZM0,59.35a2.39,2.39,0,0,0,2.39,2.38H8.05V57H2.39A2.39,2.39,0,0,0,0,59.35Zm9.07,4.11h6.45V55.23H9.07ZM0,45.65A2.39,2.39,0,0,0,2.39,48H8.05V43.27H2.39A2.39,2.39,0,0,0,0,45.65Zm9.07,4.12h6.45V41.54H9.07ZM0,32a2.39,2.39,0,0,0,2.39,2.39H8.05V29.58H2.39A2.38,2.38,0,0,0,0,32Zm9.07,4.11h6.45V27.85H9.07Zm63.2,66.54a2.39,2.39,0,1,0,4.77,0V97H72.27Zm-13.69,0a2.39,2.39,0,1,0,4.77,0V97H58.58Zm-13.69,0a2.39,2.39,0,1,0,4.77,0V97H44.89Zm-13.69,0a2.39,2.39,0,1,0,4.77,0V97H31.2ZM36,2.39a2.39,2.39,0,1,0-4.77,0V8.05H36Zm13.69,0a2.39,2.39,0,1,0-4.77,0V8.05h4.77Zm13.69,0a2.39,2.39,0,1,0-4.77,0V8.05h4.77ZM77,2.39a2.39,2.39,0,1,0-4.77,0V8.05H77Z"/><path class="cls-2" d="M29.8,65.37V53.59a16.67,16.67,0,0,1,33.34,0V65.37a2.72,2.72,0,0,1-5.44,0V60.65H41.21a2.72,2.72,0,1,1,0-5.43H57.7V53.59a11.24,11.24,0,1,0-22.47,0V65.37a2.72,2.72,0,0,1-5.43,0Z"/><path class="cls-2" d="M71.18,65.37V39.63a2.72,2.72,0,0,1,5.43,0V65.37a2.72,2.72,0,0,1-5.43,0Z"/></svg>