<svg id="Layer_1" data-name="Layer 1" xmlns="http://www.w3.org/2000/svg" viewBox="0 0 589.04 615.89"><defs><style>.cls-1{fill:#33c69f;}.cls-2{fill:#0a1b2b;}</style></defs><title>devices</title><circle class="cls-1" cx="492.36" cy="349.88" r="96.69"/><path class="cls-2" d="M472.64,402a4.85,4.85,0,1,1,4.85-4.85,4.85,4.85,0,0,1-4.85,4.85Zm-14.39,0a4.85,4.85,0,1,1,4.85-4.85,4.85,4.85,0,0,1-4.85,4.85Zm-14.39,0a4.85,4.85,0,1,1,4.85-4.85,4.85,4.85,0,0,1-4.85,4.85ZM481,385.46H435.53a3.41,3.41,0,0,0-3.41,3.41v14.54a3.41,3.41,0,0,0,3.41,3.41H481a3.41,3.41,0,0,0,3.41-3.41V388.87a3.4,3.4,0,0,0-3.41-3.41Z"/><path class="cls-2" d="M458.25,311.84a6.36,6.36,0,1,1,3.89-1.32,6.37,6.37,0,0,1-3.89,1.32Zm77.86,41-6.5-45.57a8.18,8.18,0,1,0-14.38-7.39l-47.05-2a12.54,12.54,0,1,0-15.64,18.82h0l-3.19,52.84h-4.7a1.27,1.27,0,0,0-1.14.72l-4.76,9.68a1.27,1.27,0,0,0,1.14,1.84h36.72a1.28,1.28,0,0,0,1.15-1.84L473,370.2a1.29,1.29,0,0,0-1.15-.72h-4.69L464,316.64h0a12.55,12.55,0,0,0,5.91-6.46l47.31-2a8.14,8.14,0,0,0,3.37,2.06l9.15,43.7a6,6,0,0,0-1.85,5.48,4.58,4.58,0,0,0,.18.73l-1.24,1.69-7.56,10.33,14.42,15.66-5.11-15.12,4.61-8.34a6,6,0,0,0,1.68-.06,6,6,0,0,0,2.15-.83l6.61,7.67L541.69,387l10.9-18.28-12.91-11.62a6,6,0,0,0-3.57-4.29Z"/><circle class="cls-1" cx="360.81" cy="112.13" r="112.13"/><path class="cls-2" d="M367.71,105.53a7,7,0,1,1-7-7,7,7,0,0,1,7,7Zm-20,0a13,13,0,1,0,13-13,13,13,0,0,0-13,13Z"/><path class="cls-2" d="M379.62,105.53A18.92,18.92,0,1,1,360.7,86.6a18.92,18.92,0,0,1,18.92,18.93ZM336.91,90.28V88.86a2.26,2.26,0,0,1,2.26-2.26h3.48a2.25,2.25,0,0,1,2.25,2.26v1.42a2.25,2.25,0,0,1-2.25,2.26h-3.48a2.26,2.26,0,0,1-2.26-2.26Zm-48.6-41.09,14.8-1.45v11h-4.64a1.89,1.89,0,0,0-1.73,2.32l1.47,10.61a7.37,7.37,0,0,0,7.37,6.16h0a7.67,7.67,0,0,0,4.34-1.36h42.83V82H342.64A11.13,11.13,0,0,0,331.5,93.14v24.77a11.14,11.14,0,0,0,11.14,11.14h6.89v5.55h-2.84A45.85,45.85,0,0,0,301.17,175a4.92,4.92,0,0,0,4.9,5.47h0a5,5,0,0,0,4.78-3.71c5.15-19.9,19.28-34.23,35.84-34.23h31.22c16.57,0,30.7,14.33,35.85,34.23a4.94,4.94,0,0,0,4.78,3.71h0a4.92,4.92,0,0,0,4.9-5.47,45.86,45.86,0,0,0-45.53-40.37h-6v-5.55h6.89a11.14,11.14,0,0,0,11.14-11.14V93.14A11.13,11.13,0,0,0,378.76,82h-9.89V76.5h42a7.66,7.66,0,0,0,5.16,2h0a7.37,7.37,0,0,0,7.37-6.16l1.47-10.61a1.89,1.89,0,0,0-1.72-2.32h-4.65v-11l14.8,1.46c1.9.18,3.64-.6,3.64-1.73V46.59c0-1.13-1.74-1.91-3.64-1.73l-14.87,1.47a2.47,2.47,0,0,0-2.4-1.87h0a2.46,2.46,0,0,0-2.39,1.87l-14.87-1.47c-1.9-.18-3.65.6-3.65,1.73v1.53c0,1.13,1.75,1.91,3.65,1.73l14.79-1.46v11h-4.64a1.88,1.88,0,0,0-1.72,2.32l.33,2.39H314l.42-3a1.88,1.88,0,0,0-1.72-2.32h-4.64v-11l14.8,1.45c1.89.19,3.64-.59,3.64-1.72V45.94c0-1.13-1.75-1.92-3.64-1.73L308,45.67a2.47,2.47,0,0,0-2.39-1.86h0a2.47,2.47,0,0,0-2.4,1.86l-14.87-1.46c-1.9-.19-3.64.6-3.64,1.73v1.53c0,1.13,1.74,1.91,3.64,1.72Z"/><circle class="cls-1" cx="547.11" cy="182.32" r="41.93"/><path class="cls-2" d="M530.81,174.21a6.61,6.61,0,0,1,4.69-1.94h9.68a7.7,7.7,0,0,1,7.7,7.7h-23a1.07,1.07,0,0,1-1.06-1.06,6.59,6.59,0,0,1,1.95-4.7Zm-15.08,17.16h2.8a7.59,7.59,0,0,1,15.17,0h26.24a7.59,7.59,0,0,1,15.17,0h3.38A3.47,3.47,0,0,0,582,187.9v-.64a3.44,3.44,0,0,0-1.06-2.5,1,1,0,0,1-.52.8c-.79.31-2.09-1.14-2.92-3.23a6.42,6.42,0,0,1-.52-3.78,9.74,9.74,0,0,0-2.58-.81l-15.6-1.93a27.49,27.49,0,0,0-7.3-5.67c-.8-.43-1.59-.8-2.35-1.12a32.86,32.86,0,0,0-18,.71c-1.27.44-2.31.9-4.16,1.72-1.47.66-3.44,1.58-5.77,2.84-4,2.16-5.12,3.18-5.86,4a7.18,7.18,0,0,0-1.74,2.71,6.58,6.58,0,0,0-.12,3.67,3.45,3.45,0,0,0-1.18,2.61v.64a3.47,3.47,0,0,0,3.47,3.47Z"/><path class="cls-2" d="M526.11,187.78a4.38,4.38,0,0,0-4.31,3.59,5.16,5.16,0,0,0-.07.79,4.38,4.38,0,1,0,8.76,0,4.15,4.15,0,0,0-.07-.79,4.38,4.38,0,0,0-4.31-3.59Z"/><path class="cls-2" d="M571.91,191.37a4.38,4.38,0,1,0-4.38,4.38,4.38,4.38,0,0,0,4.38-4.38Z"/><circle class="cls-1" cx="522.04" cy="548.89" r="67"/><path class="cls-2" d="M543.42,567.05a8.35,8.35,0,0,1-8.35,8.35H504a8.34,8.34,0,0,1-8.34-8.35V528.36A8.34,8.34,0,0,1,504,520h31.07a8.35,8.35,0,0,1,8.35,8.35v38.69Zm-26.23-66h4.7a2,2,0,0,1,0,3.95h-4.7a2,2,0,1,1,0-3.95Zm32.34,43.35h-2.2v-16a12.28,12.28,0,0,0-9.77-12v-.45a4.55,4.55,0,0,0-4.55-4.55h-.75l-4-15.24H510.76l-3.94,15.24h-.75a4.55,4.55,0,0,0-4.55,4.55v.45a12.28,12.28,0,0,0-9.78,12v38.69a12.29,12.29,0,0,0,10.71,12.17h-.93v2.65a4.54,4.54,0,0,0,4.55,4.55h.75l3.94,15.25h17.55l4-15.25H533a4.55,4.55,0,0,0,4.55-4.55v-2.65h-.94a12.29,12.29,0,0,0,10.71-12.17v-16h2.2a2.81,2.81,0,0,0,2.81-2.81v-1.07a2.81,2.81,0,0,0-2.81-2.81Z"/><path class="cls-2" d="M534.83,537.46a2.77,2.77,0,0,1-2.77,2.77h-2.28a2.77,2.77,0,0,1-2.77-2.77v-2.27a2.77,2.77,0,0,1,2.77-2.77h2.28a2.77,2.77,0,0,1,2.77,2.77v2.27Zm0,11.39a2.78,2.78,0,0,1-2.77,2.77h-2.28a2.78,2.78,0,0,1-2.77-2.77v-2.28a2.77,2.77,0,0,1,2.77-2.77h2.28a2.77,2.77,0,0,1,2.77,2.77v2.28Zm0,11.38a2.77,2.77,0,0,1-2.77,2.77h-2.28a2.77,2.77,0,0,1-2.77-2.77V558a2.77,2.77,0,0,1,2.77-2.77h2.28a2.77,2.77,0,0,1,2.77,2.77v2.28Zm-11.38-22.77a2.77,2.77,0,0,1-2.77,2.77H518.4a2.77,2.77,0,0,1-2.77-2.77v-2.27a2.77,2.77,0,0,1,2.77-2.77h2.28a2.77,2.77,0,0,1,2.77,2.77v2.27Zm0,11.39a2.78,2.78,0,0,1-2.77,2.77H518.4a2.78,2.78,0,0,1-2.77-2.77v-2.28a2.77,2.77,0,0,1,2.77-2.77h2.28a2.77,2.77,0,0,1,2.77,2.77v2.28Zm0,11.38a2.77,2.77,0,0,1-2.77,2.77H518.4a2.77,2.77,0,0,1-2.77-2.77V558a2.77,2.77,0,0,1,2.77-2.77h2.28a2.77,2.77,0,0,1,2.77,2.77v2.28Zm-11.39-22.77a2.77,2.77,0,0,1-2.77,2.77H507a2.77,2.77,0,0,1-2.77-2.77v-2.27a2.77,2.77,0,0,1,2.77-2.77h2.27a2.77,2.77,0,0,1,2.77,2.77v2.27Zm0,11.39a2.78,2.78,0,0,1-2.77,2.77H507a2.78,2.78,0,0,1-2.77-2.77v-2.28A2.77,2.77,0,0,1,507,543.8h2.27a2.77,2.77,0,0,1,2.77,2.77v2.28Zm0,11.38a2.77,2.77,0,0,1-2.77,2.77H507a2.77,2.77,0,0,1-2.77-2.77V558a2.77,2.77,0,0,1,2.77-2.77h2.27a2.77,2.77,0,0,1,2.77,2.77v2.28Zm23-36.3H504a4.43,4.43,0,0,0-4.42,4.43v38.69a4.42,4.42,0,0,0,4.42,4.43h31.07a4.43,4.43,0,0,0,4.43-4.43V528.36a4.44,4.44,0,0,0-4.43-4.43Z"/><circle class="cls-1" cx="360.81" cy="535.07" r="53.18"/><path class="cls-2" d="M342.47,510.49a2,2,0,1,1,2-2,2,2,0,0,1-2,2Zm-13.1,23.32h-2.2a2.08,2.08,0,0,0-2.08,2.08v28.47a2.09,2.09,0,0,0,2.08,2.08h2.2a2.09,2.09,0,0,0,2.08-2.08V552.72l.2-.1,16.17-8.75,8.53-17.06a2.59,2.59,0,0,0,.24-.76l18.39,3.7v0l4.07-18.81-35.29-7.11a6,6,0,0,0-7.05,4.69l-1.44,7.15A6,6,0,0,0,340,522.7L351.42,525l-7.52,15.06-12.45,6.74V535.89a2.08,2.08,0,0,0-2.08-2.08Z"/><path class="cls-2" d="M389.71,513.06l-7.62-1.53v0L378,530.37l7.89,1.58a2.87,2.87,0,0,0,3.37-2.24l.26-1.28,3.64.74a1.61,1.61,0,0,0,1.89-1.26l1.43-7.09a1.61,1.61,0,0,0-1.26-1.89l-3.64-.74.35-1.75a2.88,2.88,0,0,0-2.24-3.38Z"/><circle class="cls-1" cx="162" cy="349.88" r="162"/><path class="cls-2" d="M232,310.82a6.9,6.9,0,1,1,6.77-7,6.9,6.9,0,0,1-6.77,7Zm-.63-34.5a6.9,6.9,0,1,1-6.77,7,6.9,6.9,0,0,1,6.77-7Zm-23.52,34.94a6.9,6.9,0,1,1,6.77-7,6.9,6.9,0,0,1-6.77,7Zm-20,38.33A17.25,17.25,0,1,1,204.81,332a17.26,17.26,0,0,1-16.93,17.57Zm19.38-72.83a6.9,6.9,0,1,1-6.78,7,6.89,6.89,0,0,1,6.78-7Zm-57.65,60.47-9.48.18a3.53,3.53,0,0,0-3.47,3.59l.18,9.44a3.53,3.53,0,0,1-3.47,3.59h0a3.52,3.52,0,0,1-3.59-3.46l-.17-9.44a3.54,3.54,0,0,0-3.59-3.47l-9.49.18a3.53,3.53,0,0,1-.13-7.06l9.49-.17a3.52,3.52,0,0,0,3.46-3.59l-.17-9.53a3.52,3.52,0,0,1,3.46-3.59h0a3.52,3.52,0,0,1,3.59,3.46l.18,9.53a3.52,3.52,0,0,0,3.59,3.46l9.48-.17a3.53,3.53,0,1,1,.13,7.05ZM90.27,296.15a17.25,17.25,0,1,1,17.56,16.93,17.26,17.26,0,0,1-17.56-16.93ZM208.8,266.38c-19.67.36-36.53,8.88-44.49,21-8.39-11.8-25.55-19.71-45.22-19.35-25.06.46-45.58,14.19-48.9,31.67-19.49,35.7-26.11,65.5-28.65,84.45-2.46,18.22-1.34,28.78,5.27,36.71,10.17,12.23,28.27,16.14,43.87,9,3.14-6.87,7.92-17.37,13.86-30.47,2.8-6.18,3-6.7,3.29-7.23,2.62-5.42,7.8-11.71,18.41-18,.66-9.21,17.18-16.85,37.61-17.22,19.63-.36,35.91,6.12,38,14.77a52.54,52.54,0,0,1,14.47,19.51q8.1,19.07,16.17,38.13c15.42,7.56,33.61,4.11,44.1-7.85,6.8-7.76,8.19-18.29,6.21-36.57-1.95-18-7.29-45.74-23.57-79.31a25.55,25.55,0,0,0,.22-3.92c-.36-20-23.06-35.82-50.68-35.31Z"/></svg>