<svg id="Layer_1" data-name="Layer 1" xmlns="http://www.w3.org/2000/svg" viewBox="0 0 1920 425.13"><defs><style>.cls-1{fill:#33c69f;}</style></defs><title>alpha-ai_dots</title><path class="cls-1" d="M1907.68,155.16a1,1,0,1,0-1-1.06h0A1,1,0,0,0,1907.68,155.16Z"/><circle class="cls-1" cx="1867.77" cy="178.06" r="5.25"/><path class="cls-1" d="M1899.71,194.28a8.26,8.26,0,1,0-8.26-8.26A8.26,8.26,0,0,0,1899.71,194.28Z"/><path class="cls-1" d="M1918.56,194a13,13,0,0,0,1.44,5.82V188.13A12.94,12.94,0,0,0,1918.56,194Z"/><path class="cls-1" d="M1795.88,198.59a4.52,4.52,0,1,0-4.52-4.51,4.52,4.52,0,0,0,4.52,4.51Z"/><path class="cls-1" d="M1827.88,209.93A7.9,7.9,0,1,0,1820,202,7.89,7.89,0,0,0,1827.88,209.93Z"/><path class="cls-1" d="M1859.8,218.63a8.63,8.63,0,1,0-8.62-8.64h0A8.64,8.64,0,0,0,1859.8,218.63Z"/><path class="cls-1" d="M1891.74,229.06a11.09,11.09,0,1,0-11.08-11.1h0A11.09,11.09,0,0,0,1891.74,229.06Z"/><path class="cls-1" d="M1910.59,226a13.09,13.09,0,0,0,9.41,12.51v-25A13.06,13.06,0,0,0,1910.59,226Z"/><path class="cls-1" d="M1788,230.54a4.52,4.52,0,1,0-4.52-4.52,4.53,4.53,0,0,0,4.52,4.52Z"/><path class="cls-1" d="M1819.9,245.44A11.46,11.46,0,1,0,1808.43,234,11.46,11.46,0,0,0,1819.9,245.44Z"/><circle class="cls-1" cx="1851.83" cy="241.86" r="13.65" transform="matrix(0.99, -0.16, 0.16, 0.99, -14.83, 299.84)"/><path class="cls-1" d="M1883.78,263.28a13.37,13.37,0,1,0-13.37-13.37A13.36,13.36,0,0,0,1883.78,263.28Z"/><path class="cls-1" d="M1716.09,246.56a4.52,4.52,0,1,0-4.52-4.52,4.52,4.52,0,0,0,4.52,4.52Z"/><path class="cls-1" d="M1748,254.52a4.52,4.52,0,1,0-4.51-4.52,4.52,4.52,0,0,0,4.51,4.52Z"/><path class="cls-1" d="M1780,264.31a6.35,6.35,0,1,0-6.36-6.35h0A6.37,6.37,0,0,0,1780,264.31Z"/><path class="cls-1" d="M1811.93,278.85A12.92,12.92,0,1,0,1799,265.93h0A12.94,12.94,0,0,0,1811.93,278.85Z"/><path class="cls-1" d="M1829.76,273.89a14.11,14.11,0,1,0,14.12-14.1h0A14.13,14.13,0,0,0,1829.76,273.89Z"/><path class="cls-1" d="M1860.9,281.86a14.92,14.92,0,1,0,14.92-14.92A14.93,14.93,0,0,0,1860.9,281.86Z"/><path class="cls-1" d="M1676.18,267.34a1.33,1.33,0,1,0-1.33-1.33h0a1.32,1.32,0,0,0,1.32,1.32Z"/><path class="cls-1" d="M1708.12,278.5a4.52,4.52,0,1,0-4.52-4.52,4.52,4.52,0,0,0,4.52,4.52Z"/><path class="cls-1" d="M1740.06,289.84a7.9,7.9,0,1,0-7.89-7.91v0A7.89,7.89,0,0,0,1740.06,289.84Z"/><path class="cls-1" d="M1772,300.62a10.73,10.73,0,1,0-10.72-10.73V290A10.74,10.74,0,0,0,1772,300.62Z"/><path class="cls-1" d="M1789.3,297.87A14.67,14.67,0,1,0,1804,283.22h0A14.67,14.67,0,0,0,1789.3,297.87Z"/><path class="cls-1" d="M486.21,4.31a1.06,1.06,0,1,0-1-1.07h0a1,1,0,0,0,1,1.06Z"/><path class="cls-1" d="M518.16,14.56a3.34,3.34,0,1,0-3.34-3.34,3.34,3.34,0,0,0,3.34,3.34Z"/><path class="cls-1" d="M550.1,21.05a1.87,1.87,0,1,0-1.87-1.87h0A1.87,1.87,0,0,0,550.1,21.05Z"/><path class="cls-1" d="M1668.22,305.85a7.89,7.89,0,1,0-7.9-7.89A7.88,7.88,0,0,0,1668.22,305.85Z"/><path class="cls-1" d="M1700.16,314.38a8.45,8.45,0,1,0-8.45-8.45h0A8.47,8.47,0,0,0,1700.16,314.38Z"/><path class="cls-1" d="M1732.1,326A12.09,12.09,0,1,0,1720,313.89h0A12.1,12.1,0,0,0,1732.1,326Z"/><path class="cls-1" d="M1764.05,334.77a12.92,12.92,0,1,0-12.91-12.92h0A12.92,12.92,0,0,0,1764.05,334.77Z"/><path class="cls-1" d="M350.46,6.67a3.34,3.34,0,1,0-3.31-3.36v0A3.34,3.34,0,0,0,350.46,6.67Z"/><path class="cls-1" d="M382.4,14.09a2.79,2.79,0,1,0-2.78-2.78h0A2.79,2.79,0,0,0,382.4,14.09Z"/><path class="cls-1" d="M414.35,21.51a2.24,2.24,0,1,0-2.23-2.25h0A2.25,2.25,0,0,0,414.35,21.51Z"/><path class="cls-1" d="M446.29,28.83a1.6,1.6,0,1,0-1.59-1.61v0A1.61,1.61,0,0,0,446.29,28.83Z"/><path class="cls-1" d="M478.24,36.25a1.05,1.05,0,1,0-1-1h0A1,1,0,0,0,478.24,36.25Z"/><path class="cls-1" d="M510.19,46.5a3.34,3.34,0,1,0-3.33-3.35v0A3.34,3.34,0,0,0,510.19,46.5Z"/><path class="cls-1" d="M542.14,53a1.87,1.87,0,1,0-1.87-1.87h0A1.87,1.87,0,0,0,542.14,53Z"/><path class="cls-1" d="M606.06,70.85a3.8,3.8,0,1,0-3.79-3.8h0A3.79,3.79,0,0,0,606.06,70.85Z"/><path class="cls-1" d="M1628.31,326.46a4.52,4.52,0,1,0-4.53-4.52,4.51,4.51,0,0,0,4.53,4.52Z"/><path class="cls-1" d="M1660.25,340.64a10.73,10.73,0,1,0-10.73-10.74A10.74,10.74,0,0,0,1660.25,340.64Z"/><path class="cls-1" d="M1692.19,350.79a12.92,12.92,0,1,0-12.92-12.92h0A12.94,12.94,0,0,0,1692.19,350.79Z"/><path class="cls-1" d="M1710.67,345.83a13.47,13.47,0,1,0,13.48-13.46h0A13.49,13.49,0,0,0,1710.67,345.83Z"/><path class="cls-1" d="M214.71,4.75a1.33,1.33,0,1,0-1.32-1.34h0a1.32,1.32,0,0,0,1.31,1.33Z"/><path class="cls-1" d="M246.66,12.26a.88.88,0,1,0-.87-.88h0a.87.87,0,0,0,.86.87Z"/><path class="cls-1" d="M278.6,23.87a4.52,4.52,0,1,0-4.52-4.51v0A4.52,4.52,0,0,0,278.6,23.87Z"/><path class="cls-1" d="M310.55,31.29a4,4,0,1,0-4-4h0A4,4,0,0,0,310.55,31.29Z"/><path class="cls-1" d="M342.5,38.61a3.34,3.34,0,1,0-3.34-3.33h0A3.34,3.34,0,0,0,342.5,38.61Z"/><path class="cls-1" d="M374.44,46a2.78,2.78,0,1,0-2.78-2.78h0A2.78,2.78,0,0,0,374.44,46Z"/><circle class="cls-1" cx="406.39" cy="51.22" r="2.23"/><path class="cls-1" d="M438.3,60.78a1.6,1.6,0,0,0,.06-3.2,1.61,1.61,0,0,0-1.63,1.57h0A1.6,1.6,0,0,0,438.3,60.78Z"/><path class="cls-1" d="M470.3,72.12a5,5,0,1,0-5-5v0A5,5,0,0,0,470.3,72.12Z"/><circle class="cls-1" cx="502.23" cy="75.11" r="7.44" transform="translate(9.49 197.91) rotate(-22.5)"/><path class="cls-1" d="M534.17,89.06a6,6,0,1,0-6-6h0A6,6,0,0,0,534.17,89.06Z"/><path class="cls-1" d="M566.12,95.56A4.52,4.52,0,1,0,561.6,91h0A4.52,4.52,0,0,0,566.12,95.56Z"/><path class="cls-1" d="M598.06,106.27A7.27,7.27,0,1,0,590.81,99h0A7.27,7.27,0,0,0,598.06,106.27Z"/><path class="cls-1" d="M630,112.22a5.26,5.26,0,1,0-5.24-5.26v0A5.25,5.25,0,0,0,630,112.22Z"/><path class="cls-1" d="M662,120.18a5.25,5.25,0,1,0-5.24-5.24h0A5.25,5.25,0,0,0,662,120.18Z"/><path class="cls-1" d="M693.91,127.42a4.52,4.52,0,1,0-4.52-4.52h0A4.52,4.52,0,0,0,693.91,127.42Z"/><path class="cls-1" d="M725.85,137.4a6.54,6.54,0,1,0-6.53-6.55h0A6.54,6.54,0,0,0,725.85,137.4Z"/><path class="cls-1" d="M757.79,143.35a4.52,4.52,0,1,0-4.52-4.52h0A4.54,4.54,0,0,0,757.79,143.35Z"/><path class="cls-1" d="M789.74,147.85a1.06,1.06,0,1,0-1-1.07h0a1.06,1.06,0,0,0,1,1.06Z"/><path class="cls-1" d="M821.78,154.76a.11.11,0,0,0-.1-.09.08.08,0,0,0-.08.09.08.08,0,0,0,.08.09h0A.11.11,0,0,0,821.78,154.76Z"/><path class="cls-1" d="M821.68,155.26a.5.5,0,0,0,.51-.49h0a.51.51,0,0,0-.35-.62.49.49,0,0,0-.62.35.42.42,0,0,0,0,.27A.49.49,0,0,0,821.68,155.26Zm0-.82a.32.32,0,0,1,.32.32.32.32,0,0,1-.32.32.32.32,0,0,1-.32-.32A.33.33,0,0,1,821.68,154.44Z"/><path class="cls-1" d="M853.63,164.69a1.94,1.94,0,1,0-1.94-1.94A1.94,1.94,0,0,0,853.63,164.69Z"/><path class="cls-1" d="M885.58,171.74a1.06,1.06,0,1,0-1.05-1.06h0a1,1,0,0,0,1,1.05Z"/><path class="cls-1" d="M1524.5,334.56a4.52,4.52,0,1,0-4.53-4.51,4.53,4.53,0,0,0,4.53,4.51Z"/><path class="cls-1" d="M1556.44,342.48a4.52,4.52,0,1,0-4.52-4.52,4.52,4.52,0,0,0,4.52,4.52Z"/><path class="cls-1" d="M1588.36,354.09a8.17,8.17,0,1,0-8.16-8.18h0A8.17,8.17,0,0,0,1588.36,354.09Z"/><path class="cls-1" d="M1620.36,361.78a7.9,7.9,0,1,0-7.89-7.91v0A7.9,7.9,0,0,0,1620.36,361.78Z"/><path class="cls-1" d="M1652.29,375.5a13.65,13.65,0,1,0-13.66-13.65A13.65,13.65,0,0,0,1652.29,375.5Z"/><path class="cls-1" d="M1668.57,369.82a15.66,15.66,0,1,0,15.66-15.66A15.66,15.66,0,0,0,1668.57,369.82Z"/><path class="cls-1" d="M206.74,36.69a1.33,1.33,0,1,0-1.32-1.33h0a1.32,1.32,0,0,0,1.32,1.32Z"/><path class="cls-1" d="M238.69,44.2a.87.87,0,1,0-.86-.87.86.86,0,0,0,.86.87Z"/><path class="cls-1" d="M270.64,55.83a4.52,4.52,0,1,0-4.53-4.53,4.52,4.52,0,0,0,4.53,4.53Z"/><path class="cls-1" d="M302.55,63.23a4,4,0,1,0-4-4h0a4,4,0,0,0,4,4Z"/><path class="cls-1" d="M334.55,75.49a8.26,8.26,0,1,0-8.27-8.26h0A8.27,8.27,0,0,0,334.55,75.49Z"/><path class="cls-1" d="M366.48,83.28a8.08,8.08,0,1,0-8.09-8.08A8.09,8.09,0,0,0,366.48,83.28Z"/><path class="cls-1" d="M398.42,91.24a8.08,8.08,0,1,0-8.08-8.08h0A8.08,8.08,0,0,0,398.42,91.24Z"/><path class="cls-1" d="M430.37,99.11a8,8,0,1,0-8-8v0A8,8,0,0,0,430.37,99.11Z"/><path class="cls-1" d="M462.31,110.19a11.1,11.1,0,1,0-11.09-11.1A11.1,11.1,0,0,0,462.31,110.19Z"/><path class="cls-1" d="M494.25,118A10.91,10.91,0,1,0,483.36,107h0A10.89,10.89,0,0,0,494.25,118Z"/><path class="cls-1" d="M515.48,115a10.73,10.73,0,1,0,10.73-10.73h0A10.74,10.74,0,0,0,515.48,115Z"/><path class="cls-1" d="M548.85,123a9.27,9.27,0,1,0,9.27-9.27h0A9.27,9.27,0,0,0,548.85,123Z"/><path class="cls-1" d="M590.1,142.41a11.46,11.46,0,1,0-11.46-11.49,11.46,11.46,0,0,0,11.46,11.49Z"/><path class="cls-1" d="M622,149.64a10.74,10.74,0,1,0-10.72-10.74v0A10.72,10.72,0,0,0,622,149.64Z"/><path class="cls-1" d="M654,155.42a8.54,8.54,0,1,0-8.53-8.55h0A8.55,8.55,0,0,0,654,155.42Z"/><path class="cls-1" d="M685.93,162.83a8,8,0,1,0-8-8v0A8,8,0,0,0,685.93,162.83Z"/><path class="cls-1" d="M717.89,172.35a9.54,9.54,0,1,0-9.55-9.54,9.54,9.54,0,0,0,9.55,9.54Z"/><path class="cls-1" d="M749.83,178.76a8,8,0,1,0-8-8h0A8,8,0,0,0,749.83,178.76Z"/><path class="cls-1" d="M781.77,185a6.26,6.26,0,1,0-6.25-6.26A6.25,6.25,0,0,0,781.77,185Z"/><path class="cls-1" d="M813.72,192.42a5.72,5.72,0,1,0-5.71-5.71,5.71,5.71,0,0,0,5.71,5.71Z"/><path class="cls-1" d="M845.66,200a5.35,5.35,0,1,0-5.33-5.35v0A5.35,5.35,0,0,0,845.66,200Z"/><path class="cls-1" d="M877.58,207.52a4.85,4.85,0,1,0-4.85-4.84A4.84,4.84,0,0,0,877.58,207.52Z"/><path class="cls-1" d="M909.58,215.12a4.52,4.52,0,1,0-4.52-4.52h0A4.51,4.51,0,0,0,909.58,215.12Z"/><path class="cls-1" d="M973.45,231.05a4.52,4.52,0,1,0-4.52-4.52h0A4.52,4.52,0,0,0,973.45,231.05Z"/><path class="cls-1" d="M1005.39,235.55a1.06,1.06,0,1,0-1-1.07h0A1.06,1.06,0,0,0,1005.39,235.55Z"/><path class="cls-1" d="M1420.69,342.56a4.52,4.52,0,1,0-4.51-4.52h0A4.51,4.51,0,0,0,1420.69,342.56Z"/><path class="cls-1" d="M1452.61,350.53a4.52,4.52,0,1,0-4.52-4.52,4.52,4.52,0,0,0,4.52,4.52Z"/><path class="cls-1" d="M1484.61,358.5a4.53,4.53,0,1,0-4.52-4.54v0a4.52,4.52,0,0,0,4.52,4.52Z"/><path class="cls-1" d="M1516.54,371.3a9.36,9.36,0,1,0-9.36-9.36A9.36,9.36,0,0,0,1516.54,371.3Z"/><path class="cls-1" d="M1548.48,379.63a9.7,9.7,0,1,0-9.7-9.7A9.7,9.7,0,0,0,1548.48,379.63Z"/><circle class="cls-1" cx="1580.42" cy="377.95" r="11.09" transform="translate(-44.56 373.14) rotate(-13.28)"/><path class="cls-1" d="M1612.37,396.74a10.91,10.91,0,1,0-10.91-10.91h0A10.93,10.93,0,0,0,1612.37,396.74Z"/><path class="cls-1" d="M1644.32,406.72a12.92,12.92,0,1,0-12.92-12.92h0A12.93,12.93,0,0,0,1644.32,406.72Z"/><path class="cls-1" d="M198.79,71.84a4.52,4.52,0,1,0-4.52-4.52h0A4.52,4.52,0,0,0,198.79,71.84Z"/><path class="cls-1" d="M230.73,80.8a5.53,5.53,0,1,0-5.53-5.52h0a5.52,5.52,0,0,0,5.52,5.51Z"/><path class="cls-1" d="M262.67,90A6.71,6.71,0,1,0,256,83.21v0A6.71,6.71,0,0,0,262.67,90Z"/><circle class="cls-1" cx="294.62" cy="91.2" r="8.08" transform="translate(-10.81 48.38) rotate(-9.22)"/><path class="cls-1" d="M326.56,110.82a11.64,11.64,0,1,0-11.63-11.64A11.64,11.64,0,0,0,326.56,110.82Z"/><path class="cls-1" d="M358.51,118.69A11.55,11.55,0,1,0,347,107.14,11.55,11.55,0,0,0,358.51,118.69Z"/><path class="cls-1" d="M390.46,126.47a11.37,11.37,0,1,0-11.37-11.37A11.37,11.37,0,0,0,390.46,126.47Z"/><path class="cls-1" d="M422.4,134.25a11.18,11.18,0,1,0-11.18-11.18h0A11.2,11.2,0,0,0,422.4,134.25Z"/><path class="cls-1" d="M454.35,144.42A13.39,13.39,0,1,0,441,131h0A13.4,13.4,0,0,0,454.35,144.42Z"/><path class="cls-1" d="M486.29,152.56A13.58,13.58,0,1,0,472.72,139,13.58,13.58,0,0,0,486.29,152.56Z"/><path class="cls-1" d="M518.24,133.6A13.37,13.37,0,1,0,531.62,147,13.37,13.37,0,0,0,518.24,133.6Z"/><path class="cls-1" d="M563.1,154.93a12.92,12.92,0,1,0-12.91,12.91h0A12.91,12.91,0,0,0,563.1,154.93Z"/><path class="cls-1" d="M582.13,176.82a13.93,13.93,0,1,0-13.89-14v.06A14,14,0,0,0,582.13,176.82Z"/><path class="cls-1" d="M627,170.86a12.92,12.92,0,1,0-12.92,12.92A12.93,12.93,0,0,0,627,170.86Z"/><path class="cls-1" d="M646,191.2a12.38,12.38,0,1,0-12.36-12.39v0A12.39,12.39,0,0,0,646,191.2Z"/><path class="cls-1" d="M678,197.52a10.73,10.73,0,1,0-10.73-10.73A10.73,10.73,0,0,0,678,197.52Z"/><path class="cls-1" d="M709.92,206a11.28,11.28,0,1,0-11.27-11.29v0A11.29,11.29,0,0,0,709.92,206Z"/><path class="cls-1" d="M741.87,213.45a10.73,10.73,0,1,0-10.72-10.73h0A10.75,10.75,0,0,0,741.87,213.45Z"/><path class="cls-1" d="M773.82,220a9.36,9.36,0,1,0-9.36-9.35A9.36,9.36,0,0,0,773.82,220Z"/><circle class="cls-1" cx="805.75" cy="218.66" r="8.9"/><path class="cls-1" d="M837.7,237.34A10.73,10.73,0,1,0,827,226.62h0A10.72,10.72,0,0,0,837.7,237.34Z"/><circle class="cls-1" cx="869.64" cy="234.59" r="8.45"/><path class="cls-1" d="M901.6,250.81a8.26,8.26,0,1,0-8.27-8.26,8.26,8.26,0,0,0,8.27,8.26Z"/><path class="cls-1" d="M933.54,255a4.52,4.52,0,1,0-4.52-4.52h0A4.52,4.52,0,0,0,933.54,255Z"/><path class="cls-1" d="M965.48,263a4.52,4.52,0,1,0-4.51-4.53v0A4.52,4.52,0,0,0,965.48,263Z"/><path class="cls-1" d="M997.43,273.34a6.9,6.9,0,1,0-6.89-6.9h0A6.9,6.9,0,0,0,997.43,273.34Z"/><path class="cls-1" d="M1029.38,278.92a4.52,4.52,0,1,0-4.52-4.52,4.52,4.52,0,0,0,4.52,4.52Z"/><path class="cls-1" d="M1061.32,284.42a2.06,2.06,0,1,0-2-2.06v0A2,2,0,0,0,1061.32,284.42Z"/><path class="cls-1" d="M1093.27,291.66a1.32,1.32,0,1,0-1.32-1.32h0A1.33,1.33,0,0,0,1093.27,291.66Z"/><path class="cls-1" d="M1253,334.68a4.52,4.52,0,1,0-4.51-4.53h0A4.52,4.52,0,0,0,1253,334.68Z"/><path class="cls-1" d="M1285,342.65a4.52,4.52,0,1,0-4.52-4.53A4.51,4.51,0,0,0,1285,342.65Z"/><path class="cls-1" d="M1316.9,347.41a1.32,1.32,0,1,0-1.33-1.32,1.32,1.32,0,0,0,1.33,1.32Z"/><path class="cls-1" d="M1348.85,354.92a.88.88,0,1,0-.87-.87.86.86,0,0,0,.85.87Z"/><path class="cls-1" d="M1380.78,366.56a4.52,4.52,0,1,0-4.52-4.52A4.53,4.53,0,0,0,1380.78,366.56Z"/><path class="cls-1" d="M1412.73,377.88a7.9,7.9,0,1,0-7.9-7.89,7.9,7.9,0,0,0,7.9,7.89Z"/><path class="cls-1" d="M1444.67,386a8,8,0,1,0-8-8h0A8,8,0,0,0,1444.67,386Z"/><path class="cls-1" d="M1476.62,393.9a8,8,0,1,0-8-8v0A8,8,0,0,0,1476.62,393.9Z"/><path class="cls-1" d="M1508.57,406.81a12.93,12.93,0,1,0-12.92-12.94v0A12.94,12.94,0,0,0,1508.57,406.81Z"/><path class="cls-1" d="M1540.51,414.77a12.93,12.93,0,1,0-12.92-12.94h0A12.94,12.94,0,0,0,1540.51,414.77Z"/><path class="cls-1" d="M1572.46,423.64a13.83,13.83,0,1,0-13.83-13.83A13.83,13.83,0,0,0,1572.46,423.64Z"/><path class="cls-1" d="M1616.91,424.83a14.1,14.1,0,0,0,1.87-7.06,14.38,14.38,0,1,0-26.88,7.06Z"/><path class="cls-1" d="M158.87,93.72a2.43,2.43,0,1,0-2.42-2.43h0A2.42,2.42,0,0,0,158.87,93.72Z"/><path class="cls-1" d="M190.81,108.17a8.9,8.9,0,1,0-8.89-8.91h0A8.9,8.9,0,0,0,190.81,108.17Z"/><path class="cls-1" d="M222.76,115.22a8,8,0,1,0-8-8h0A8,8,0,0,0,222.76,115.22Z"/><path class="cls-1" d="M254.71,126.2a11,11,0,1,0-11-11h0A11,11,0,0,0,254.71,126.2Z"/><path class="cls-1" d="M298.47,123.16A11.82,11.82,0,1,0,286.65,135,11.82,11.82,0,0,0,298.47,123.16Z"/><path class="cls-1" d="M304.31,131.12a14.3,14.3,0,1,0,14.3-14.28h0A14.31,14.31,0,0,0,304.31,131.12Z"/><path class="cls-1" d="M336.53,139.09a14,14,0,1,0,14-14h0A14,14,0,0,0,336.53,139.09Z"/><path class="cls-1" d="M368.66,147.05a13.84,13.84,0,1,0,13.85-13.82h0A13.83,13.83,0,0,0,368.66,147.05Z"/><path class="cls-1" d="M400.88,155a13.58,13.58,0,1,0,13.58-13.58A13.58,13.58,0,0,0,400.88,155Z"/><path class="cls-1" d="M432.37,163a14,14,0,1,0,14-14A14,14,0,0,0,432.37,163Z"/><path class="cls-1" d="M464.77,171a13.58,13.58,0,1,0,13.57-13.58A13.56,13.56,0,0,0,464.77,171Z"/><path class="cls-1" d="M542.23,201.8a14.92,14.92,0,1,0-14.94-14.92A14.92,14.92,0,0,0,542.23,201.8Z"/><path class="cls-1" d="M590.37,202.81a15.75,15.75,0,1,0,15.75-15.75h0A15.77,15.77,0,0,0,590.37,202.81Z"/><path class="cls-1" d="M638.06,224.33a13.58,13.58,0,1,0-13.58-13.58h0A13.58,13.58,0,0,0,638.06,224.33Z"/><path class="cls-1" d="M670,205.82a12.92,12.92,0,1,0,12.93,12.91A12.9,12.9,0,0,0,670,205.82Z"/><path class="cls-1" d="M716,226.71a14,14,0,1,0-14,14h0A14,14,0,0,0,716,226.71Z"/><path class="cls-1" d="M720.43,234.68a13.47,13.47,0,1,0,13.48-13.46h0A13.47,13.47,0,0,0,720.43,234.68Z"/><path class="cls-1" d="M765.84,229.72a12.92,12.92,0,1,0,12.92,12.92A12.92,12.92,0,0,0,765.84,229.72Z"/><circle class="cls-1" cx="797.79" cy="250.6" r="11" transform="translate(260.97 891.76) rotate(-67.5)"/><path class="cls-1" d="M840.47,258.57a10.74,10.74,0,1,0-10.76,10.71h0A10.75,10.75,0,0,0,840.47,258.57Z"/><path class="cls-1" d="M873.13,266.53A11.45,11.45,0,1,0,861.68,278h0A11.45,11.45,0,0,0,873.13,266.53Z"/><path class="cls-1" d="M893.62,285.41a10.92,10.92,0,1,0-10.9-10.93h0A10.92,10.92,0,0,0,893.62,285.41Z"/><path class="cls-1" d="M925.58,293.37a10.91,10.91,0,1,0-10.91-10.91A10.9,10.9,0,0,0,925.58,293.37Z"/><path class="cls-1" d="M957.52,298.41a8,8,0,1,0-8-8h0A8,8,0,0,0,957.52,298.41Z"/><path class="cls-1" d="M989.47,309.12a10.74,10.74,0,1,0-10.74-10.73h0A10.74,10.74,0,0,0,989.47,309.12Z"/><path class="cls-1" d="M1021.41,316.26a9.9,9.9,0,1,0-9.9-9.9h0A9.92,9.92,0,0,0,1021.41,316.26Z"/><path class="cls-1" d="M1053.35,322.22a7.91,7.91,0,1,0-7.89-7.91h0A7.9,7.9,0,0,0,1053.35,322.22Z"/><path class="cls-1" d="M1085.3,327.77a5.53,5.53,0,1,0-5.52-5.53h0A5.52,5.52,0,0,0,1085.3,327.77Z"/><path class="cls-1" d="M1117.26,338.7a8.45,8.45,0,1,0-8.46-8.45,8.45,8.45,0,0,0,8.46,8.45Z"/><path class="cls-1" d="M1149.2,346.11a7.9,7.9,0,1,0-7.9-7.91v0A7.9,7.9,0,0,0,1149.2,346.11Z"/><path class="cls-1" d="M1181.15,350.7a4.52,4.52,0,1,0-4.53-4.52,4.52,4.52,0,0,0,4.53,4.52Z"/><path class="cls-1" d="M1213.09,358.66a4.52,4.52,0,1,0-4.52-4.52,4.52,4.52,0,0,0,4.52,4.52Z"/><path class="cls-1" d="M1245,370a7.91,7.91,0,1,0-7.89-7.92v0A7.91,7.91,0,0,0,1245,370Z"/><path class="cls-1" d="M1277,378a7.9,7.9,0,1,0-7.9-7.89A7.91,7.91,0,0,0,1277,378Z"/><path class="cls-1" d="M1308.93,386A7.91,7.91,0,1,0,1301,378h0A7.92,7.92,0,0,0,1308.93,386Z"/><path class="cls-1" d="M1340.87,390.89a4.85,4.85,0,1,0-4.85-4.84A4.85,4.85,0,0,0,1340.87,390.89Z"/><path class="cls-1" d="M1372.82,401.87a7.9,7.9,0,1,0-7.89-7.91h0A7.9,7.9,0,0,0,1372.82,401.87Z"/><path class="cls-1" d="M1404.76,412.66A10.73,10.73,0,1,0,1394,401.94a10.73,10.73,0,0,0,10.72,10.72Z"/><path class="cls-1" d="M1436.71,420.72a10.82,10.82,0,1,0-10.82-10.82A10.81,10.81,0,0,0,1436.71,420.72Z"/><path class="cls-1" d="M1478.41,424.83a11.83,11.83,0,0,0,2.25-7,12,12,0,0,0-24,0,11.84,11.84,0,0,0,2.26,7Z"/><path class="cls-1" d="M1514,424.83a13.45,13.45,0,0,0-26.83,0Z"/><path class="cls-1" d="M1542.79,424.83a13.63,13.63,0,0,0-20.52,0Z"/><path class="cls-1" d="M55.07,100.31a1,1,0,0,0,0-1.94,1,1,0,1,0,0,1.94Z"/><path class="cls-1" d="M87,111.84a4.52,4.52,0,1,0-4.52-4.52h0A4.53,4.53,0,0,0,87,111.84Z"/><path class="cls-1" d="M119,120.07a4.79,4.79,0,1,0-4.79-4.79A4.79,4.79,0,0,0,119,120.07Z"/><path class="cls-1" d="M150.9,131.23a8,8,0,1,0-8-8h0A8,8,0,0,0,150.9,131.23Z"/><path class="cls-1" d="M182.85,142.86a11.64,11.64,0,1,0-11.64-11.64A11.64,11.64,0,0,0,182.85,142.86Z"/><path class="cls-1" d="M227.71,139.18A12.92,12.92,0,1,0,214.8,152.1h0A12.93,12.93,0,0,0,227.71,139.18Z"/><path class="cls-1" d="M246.74,160.61a13.47,13.47,0,1,0-13.46-13.48h0A13.49,13.49,0,0,0,246.74,160.61Z"/><path class="cls-1" d="M264.21,155.1a14.48,14.48,0,1,0,14.48-14.48A14.48,14.48,0,0,0,264.21,155.1Z"/><circle class="cls-1" cx="693.99" cy="258.65" r="14.56" transform="translate(189.44 800.83) rotate(-67.5)"/><path class="cls-1" d="M789.83,296.38A13.84,13.84,0,1,0,776,282.54,13.84,13.84,0,0,0,789.83,296.38Z"/><path class="cls-1" d="M821.77,303.88a13.37,13.37,0,1,0-13.37-13.37h0A13.38,13.38,0,0,0,821.77,303.88Z"/><path class="cls-1" d="M853.72,312.13a13.66,13.66,0,1,0-13.65-13.66A13.66,13.66,0,0,0,853.72,312.13Z"/><path class="cls-1" d="M885.66,319.82a13.38,13.38,0,1,0-13.37-13.39A13.38,13.38,0,0,0,885.66,319.82Z"/><path class="cls-1" d="M917.6,301.3a13.11,13.11,0,1,0,13.12,13.1A13.11,13.11,0,0,0,917.6,301.3Z"/><path class="cls-1" d="M949.56,333.1a10.74,10.74,0,1,0-10.73-10.74h0A10.73,10.73,0,0,0,949.56,333.1Z"/><path class="cls-1" d="M981.51,316.41a13.93,13.93,0,1,0,13.91,13.94h0A13.93,13.93,0,0,0,981.51,316.41Z"/><path class="cls-1" d="M1026.37,338.3a12.92,12.92,0,1,0-12.92,12.91h0A12.93,12.93,0,0,0,1026.37,338.3Z"/><path class="cls-1" d="M1045.39,357a10.73,10.73,0,1,0-10.72-10.72A10.73,10.73,0,0,0,1045.39,357Z"/><path class="cls-1" d="M1077.33,363.13a8.9,8.9,0,1,0-8.91-8.9,8.9,8.9,0,0,0,8.91,8.9Z"/><path class="cls-1" d="M1109.33,373.56A11.37,11.37,0,1,0,1098,362.19h0A11.37,11.37,0,0,0,1109.33,373.56Z"/><circle class="cls-1" cx="1141.23" cy="370.11" r="10.91"/><path class="cls-1" d="M1173.18,386a7.9,7.9,0,1,0-7.9-7.9,7.9,7.9,0,0,0,7.9,7.9Z"/><path class="cls-1" d="M1205.12,394a7.9,7.9,0,1,0-7.89-7.9,7.9,7.9,0,0,0,7.89,7.9Z"/><path class="cls-1" d="M1237.07,405.88a11.82,11.82,0,1,0-11.82-11.82h0A11.84,11.84,0,0,0,1237.07,405.88Z"/><path class="cls-1" d="M1269,413.48A11.46,11.46,0,1,0,1257.56,402h0A11.48,11.48,0,0,0,1269,413.48Z"/><circle class="cls-1" cx="1300.96" cy="409.99" r="11.09"/><path class="cls-1" d="M1341.09,424.83a10.61,10.61,0,0,0,2.53-6.87,10.73,10.73,0,0,0-21.46-.65V418a10.71,10.71,0,0,0,2.52,6.87Z"/><path class="cls-1" d="M1377.72,424.83a12.91,12.91,0,0,0-25.73,0Z"/><path class="cls-1" d="M1406.11,424.83a12.92,12.92,0,0,0-18.25-.37l-.37.37Z"/><path class="cls-1" d="M47.1,139.28a8,8,0,1,0-8-8v0A8,8,0,0,0,47.1,139.28Z"/><path class="cls-1" d="M79.05,147.4a8.18,8.18,0,1,0-8.17-8.17h0A8.17,8.17,0,0,0,79.05,147.4Z"/><path class="cls-1" d="M111,157a9.7,9.7,0,1,0-9.7-9.7A9.7,9.7,0,0,0,111,157Z"/><path class="cls-1" d="M142.93,165.92a10.73,10.73,0,1,0-10.72-10.76,10.73,10.73,0,0,0,10.72,10.76Z"/><path class="cls-1" d="M174.88,177.46a14.29,14.29,0,1,0-14.28-14.3h0A14.3,14.3,0,0,0,174.88,177.46Z"/><path class="cls-1" d="M193.55,171.12a13.29,13.29,0,1,0,13.29-13.28h0A13.29,13.29,0,0,0,193.55,171.12Z"/><path class="cls-1" d="M941.58,369.24a14.93,14.93,0,1,0-14.94-14.92A14.91,14.91,0,0,0,941.58,369.24Z"/><circle class="cls-1" cx="1005.49" cy="370.2" r="14.65"/><path class="cls-1" d="M1037.42,392a13.74,13.74,0,1,0-13.73-13.76A13.73,13.73,0,0,0,1037.42,392Z"/><path class="cls-1" d="M1056.46,386.18a12.93,12.93,0,1,0,12.93-12.91h0A12.92,12.92,0,0,0,1056.46,386.18Z"/><path class="cls-1" d="M1101.32,407.61a13.47,13.47,0,1,0-13.47-13.47A13.47,13.47,0,0,0,1101.32,407.61Z"/><path class="cls-1" d="M1133.27,389a13.1,13.1,0,1,0,13.1,13.1A13.11,13.11,0,0,0,1133.27,389Z"/><circle class="cls-1" cx="1165.21" cy="410.12" r="12.92" transform="translate(-63.05 278.63) rotate(-13.28)"/><path class="cls-1" d="M1207.48,424.83a12.38,12.38,0,1,0-20.64,0Z"/><path class="cls-1" d="M1242,424.83a12.91,12.91,0,0,0-25.72,0Z"/><path class="cls-1" d="M1270.14,424.83a12.82,12.82,0,0,0-18.12-.05l0,.05Z"/><circle class="cls-1" cx="7.19" cy="155.28" r="4.52"/><path class="cls-1" d="M39.14,174.15a10.91,10.91,0,1,0-10.91-10.91h0A10.92,10.92,0,0,0,39.14,174.15Z"/><path class="cls-1" d="M71.08,183.49a12.29,12.29,0,1,0-12.28-12.3v0A12.3,12.3,0,0,0,71.08,183.49Z"/><path class="cls-1" d="M103,192.09a12.92,12.92,0,1,0-12.92-12.92h0A12.94,12.94,0,0,0,103,192.09Z"/><path class="cls-1" d="M135,200.05a12.92,12.92,0,1,0-12.91-12.92v0A12.93,12.93,0,0,0,135,200.05Z"/><path class="cls-1" d="M10,187.22A10.66,10.66,0,0,0,0,176.66v21.17A10.67,10.67,0,0,0,10,187.22Z"/><path class="cls-1" d="M31.18,208a12.83,12.83,0,1,0-12.83-12.83h0A12.84,12.84,0,0,0,31.18,208Z"/><path class="cls-1" d="M49.93,203.15A13.19,13.19,0,1,0,63.12,190,13.19,13.19,0,0,0,49.93,203.15Z"/><path class="cls-1" d="M81.6,211.12a13.47,13.47,0,1,0,13.47-13.47h0A13.49,13.49,0,0,0,81.6,211.12Z"/><path class="cls-1" d="M113.27,219.08A13.74,13.74,0,1,0,127,205.34,13.74,13.74,0,0,0,113.27,219.08Z"/><path class="cls-1" d="M0,209.83V228.5a12.73,12.73,0,0,0,4.08-9.34A12.72,12.72,0,0,0,0,209.83Z"/><path class="cls-1" d="M23.2,243.16a16,16,0,1,0-16-16h0A16,16,0,0,0,23.2,243.16Z"/><path class="cls-1" d="M15.24,275.1A16,16,0,1,0,0,254.38v9.39A16,16,0,0,0,15.24,275.1Z"/><path class="cls-1" d="M1920,273.73V242a16.21,16.21,0,0,0-4.27-.63,16.48,16.48,0,0,0-6.47,31.63c-.5-.07-1-.12-1.5-.14a17,17,0,0,0-16.93,16.93,16.77,16.77,0,0,0,6,12.87,19.47,19.47,0,0,0-12.2,7,17.29,17.29,0,0,0-32.26-3.67v-.22a16.49,16.49,0,1,0-26.59,13,19.15,19.15,0,0,0-13.41,7.88,16.71,16.71,0,1,0-26.83,16.15,19.08,19.08,0,0,0-13.3,8.18,16.44,16.44,0,1,0-20.89,18.52,16.79,16.79,0,0,0-3.24-.32A16.48,16.48,0,0,0,1738,398.76a18.87,18.87,0,0,0-13.19,7.52,17.08,17.08,0,0,0-10-12.16c.47,0,.9.14,1.37.14a16.58,16.58,0,1,0-6.68-1.45c-.43,0-.85-.11-1.29-.11a17.06,17.06,0,0,0-15.52,10v-.92a16.49,16.49,0,1,0-26.59,13,19,19,0,0,0-13.57,8.25,16.43,16.43,0,0,0-32.61,1.81h65.22a18.84,18.84,0,0,0-6.16-6.9,16.42,16.42,0,0,0,12.24-9.24v1.05a16.87,16.87,0,0,0,5.9,12.8,19.67,19.67,0,0,0-6.48,2.29H1716a17,17,0,0,0,5.35-4.32,19.07,19.07,0,0,0,1.18,4.32H1910.3a5.61,5.61,0,0,1,.82,0H1914a5.18,5.18,0,0,1,1.74.3H1920V312.34a19.74,19.74,0,0,0-2.41,1.75,19.43,19.43,0,0,0-6.09-7.75,16.6,16.6,0,0,0,8.5-5V278.41a17,17,0,0,0-5.9-4.18c.54.08,1.09.14,1.63.17A16.77,16.77,0,0,0,1920,273.73ZM1757.68,410.1a19.12,19.12,0,0,0-6.79-8.18A16.48,16.48,0,0,0,1761,396.1a19.19,19.19,0,0,0,4.06,9.65A21.23,21.23,0,0,0,1757.68,410.1Zm6.54-27.5A16.48,16.48,0,0,0,1752.8,370a16.5,16.5,0,0,0,16.3-6,18.85,18.85,0,0,0,5.39,11.28A19.32,19.32,0,0,0,1764.22,382.6Zm26.85,33.65a20.87,20.87,0,0,0-3.24-4.78,20.16,20.16,0,0,0,4.44-2.77,20.73,20.73,0,0,0,2.67,5.16,22.36,22.36,0,0,0-3.91,2.39Zm6.79-30.12a19.27,19.27,0,0,0-4.2-6.16,19.14,19.14,0,0,0,7.37-4.19,19.94,19.94,0,0,0,3.4,6.34,21,21,0,0,0-6.55,4Zm8.15-30.59a19.08,19.08,0,0,0-7-9.33,16.69,16.69,0,0,0,10-5.94,19,19,0,0,0,4.85,10.54,19.74,19.74,0,0,0-7.86,4.73Zm17.1,67.77a22.55,22.55,0,0,0-1.83-2.81,21.87,21.87,0,0,0,3-1.86,21,21,0,0,0,1.67,3,21.19,21.19,0,0,0-2.86,1.71Zm7.8-30.77a21.44,21.44,0,0,0-3-4.54,20.24,20.24,0,0,0,4.45-2.75A20.27,20.27,0,0,0,1835,390a21.71,21.71,0,0,0-4,2.52Zm7.33-30.75a19.91,19.91,0,0,0-4.08-6,19.17,19.17,0,0,0,7-4.21,19.15,19.15,0,0,0,3.48,6.49,20.81,20.81,0,0,0-6.38,3.74Zm7.75-29.94a19.05,19.05,0,0,0-7.41-9.84,16.38,16.38,0,0,0,11.92-8.62v.41a17.17,17.17,0,0,0,5.66,12.7,19.39,19.39,0,0,0-10.12,5.35Zm17.46,68.63a21.36,21.36,0,0,0-2.44-3.87,20.8,20.8,0,0,0,3.42-2.13,19.74,19.74,0,0,0,2.43,3.88,21.77,21.77,0,0,0-3.37,2.13Zm7.48-31.68a21,21,0,0,0-3.32-5,19.74,19.74,0,0,0,5.07-3.2,19.82,19.82,0,0,0,2.91,5.44,21.86,21.86,0,0,0-4.62,2.77Zm7.18-30.18a19.6,19.6,0,0,0-5.89-8.09,17.23,17.23,0,0,0,8.53-5.34,19.17,19.17,0,0,0,4.44,9.32,20.29,20.29,0,0,0-7,4.11Zm16.21,68.66a20.85,20.85,0,0,0-1.46-2.27,20.76,20.76,0,0,0,2.83-1.6,19.87,19.87,0,0,0,1.2,2.23A25.43,25.43,0,0,0,1894.32,407.28Zm8.27-31.6a20.75,20.75,0,0,0-2.26-3.38,20,20,0,0,0,4-2.51,22.1,22.1,0,0,0,1.94,3.66,22.2,22.2,0,0,0-3.65,2.19Zm9.34-38.84a20.74,20.74,0,0,0,3.06,5.67,20.58,20.58,0,0,0-4.53,2.91,20.18,20.18,0,0,0-3.71-5.59,18.84,18.84,0,0,0,5.18-3Z"/><path class="cls-1" d="M1139.14,424.83a16.56,16.56,0,0,0-27.64,0Z"/><path class="cls-1" d="M1110.5,424.83a17.19,17.19,0,0,0-34.29,0Z"/><path class="cls-1" d="M1073.69,424.83a14,14,0,1,0-24.56,0Z"/><path class="cls-1" d="M1029.47,393.71a16.48,16.48,0,0,0-14.85,9.32v-.81a17.12,17.12,0,0,0-17.11-17.11,16.86,16.86,0,0,0-13.14,6.22,18.86,18.86,0,0,0-8.12-12.85,16.37,16.37,0,1,0-12.83-3.2,19,19,0,0,0-12.55,6.79,17.68,17.68,0,0,0-32.16-5.35,17.15,17.15,0,0,0-10.29-14.14c.41,0,.81.13,1.22.13a16.39,16.39,0,1,0-15.81-20.4,16.34,16.34,0,0,0,.53-3.88,16.66,16.66,0,0,0-31.69-7.18v-.78a16.93,16.93,0,0,0-32.53-6.58c0-.47.06-.93.06-1.4a16.39,16.39,0,0,0-31-7.52v-.45a17.45,17.45,0,0,0-17.39-17.39,17.24,17.24,0,0,0-14.77,8.33A17.22,17.22,0,0,0,757,290.92c.31,0,.61.1.92.1a16.39,16.39,0,1,0-15.31-22.1,17.11,17.11,0,0,0,.21-2.25,16.85,16.85,0,1,0-27.41,13.08,18.73,18.73,0,0,0-11.86,6.47,18.1,18.1,0,0,0-17.46-13.58,17.88,17.88,0,0,0-13.3,6,19.07,19.07,0,0,0-8.07-11.76,16.35,16.35,0,1,0-19-16.11,16.41,16.41,0,0,0,6.41,13,18.84,18.84,0,0,0-11.42,5.4,19.24,19.24,0,0,0-7.53-10.33A16.35,16.35,0,1,0,615,236.38c0-.51.07-1,.07-1.55a16.91,16.91,0,0,0-31.41-8.73,17.27,17.27,0,0,0-9.64-14.87h.15a16.54,16.54,0,1,0-7.57-1.94h-.4a17.38,17.38,0,0,0-14.62,8,17.37,17.37,0,0,0-31.22-9,18.19,18.19,0,0,0-9.24-13.58,15.93,15.93,0,1,0-9.06-2.26A18.23,18.23,0,0,0,487,201a16.68,16.68,0,0,0-31.44-5.77v-.3a17.11,17.11,0,0,0-32.69-7.09V187a16.4,16.4,0,0,0-32.09-4.76,16.57,16.57,0,0,0-31.64-9.37,15.44,15.44,0,0,0,.09-1.79,16.67,16.67,0,0,0-31.9-6.79c0-.41.05-.82.05-1.21a16.76,16.76,0,1,0-26.58,13.5,18.43,18.43,0,0,0-13.41,8,16.88,16.88,0,0,0-32.18-4.28c0-.4.13-.78.13-1.19A16.57,16.57,0,1,0,231.69,194c-.29,0-.57-.09-.88-.09a17.14,17.14,0,0,0-15.52,9.8V203a16.49,16.49,0,1,0-26.59,13,19.19,19.19,0,0,0-13.18,7.52,17.11,17.11,0,0,0-10.26-12.27c.54.05,1.06.16,1.62.16a16.44,16.44,0,1,0-6.46-1.34c-.51,0-1-.13-1.52-.13a17,17,0,0,0-8.08,32,16.84,16.84,0,0,0-15,9.31V251a16.84,16.84,0,0,0-32.26-6.78v-1.18a16.57,16.57,0,1,0-26.7,13.11,19.06,19.06,0,0,0-13.22,7.69,17,17,0,0,0-10.44-12.6,16.16,16.16,0,0,0,1.84.19A16.48,16.48,0,1,0,49,250.25c-.61-.09-1.23-.14-1.85-.17a17,17,0,0,0-16.85,17A16.75,16.75,0,0,0,36.34,280a19,19,0,0,0-13,8.16A16.3,16.3,0,0,0,7.27,274.64,16,16,0,0,0,0,276.42V374.1a21.07,21.07,0,0,0,4.11-2.56,20.09,20.09,0,0,0,1.77,3.09,21.72,21.72,0,0,0-3.94,2.47,23.64,23.64,0,0,0-1.94-3l.43,50.64H62.64a5.12,5.12,0,0,1,.78.06h944.93a21.22,21.22,0,0,0-5.13-6.58,17,17,0,0,0,9.77-8.73v.65a16.42,16.42,0,0,0,5.28,12,20.42,20.42,0,0,0-7.29,2.68h25.9a16.48,16.48,0,0,0-7.4-31.15ZM10.53,346.26a21.07,21.07,0,0,0-3.88-5.82,18.54,18.54,0,0,0,4.73-2.91,20.54,20.54,0,0,0,3.25,6.11A21,21,0,0,0,10.53,346.26Zm6.28-30.63a19.06,19.06,0,0,0-7-8.48,16.28,16.28,0,0,0,10.35-5.95,19.06,19.06,0,0,0,4.22,10A21.36,21.36,0,0,0,16.81,315.63Zm10.54,99-.31.17a.52.52,0,0,0-.06-.13l-.36-.64h.06l.34-.17c.12.26.26.51.4.76Zm7.12-31a20.71,20.71,0,0,0-1.4-2.1A21.59,21.59,0,0,0,35,380.32c.37.76.78,1.51,1.23,2.24-.57.3-1.19.62-1.77,1Zm7.37-30.43a21,21,0,0,0-1.94-3,21.26,21.26,0,0,0,4-2.5,21.85,21.85,0,0,0,1.76,3.08,21.09,21.09,0,0,0-3.86,2.4Zm8.58-30.93a21.19,21.19,0,0,0-3.64-5.48,19,19,0,0,0,4.61-2.84,20.69,20.69,0,0,0,3.1,5.76A21.77,21.77,0,0,0,50.42,322.2ZM57,291.47a19.3,19.3,0,0,0-6.17-7.93,16.72,16.72,0,0,0,9.57-5.92,18.91,18.91,0,0,0,4.15,9.47A21.12,21.12,0,0,0,57,291.47Zm11,98.91c-.32.17-.65.33-1,.51l-.15-.09c-.14-.24-.27-.51-.43-.76l.15-.07c.29-.16.59-.32.87-.49.17.31.33.63.51,1Zm6.79-30.21a23.34,23.34,0,0,0-1.72-2.67,21.62,21.62,0,0,0,2.83-1.82,19.88,19.88,0,0,0,1.66,2.91,23.32,23.32,0,0,0-2.84,1.61ZM82.43,330A20.25,20.25,0,0,0,80,326.07a21.59,21.59,0,0,0,4-2.52,21.57,21.57,0,0,0,2.45,4A20.67,20.67,0,0,0,82.37,330Zm8-31.72a21.26,21.26,0,0,0-3.87-5.82,18.87,18.87,0,0,0,6.19-4.22A18.87,18.87,0,0,0,96.35,295a20.69,20.69,0,0,0-6,3.28ZM99,398.56a1.09,1.09,0,0,1-.08-.15l-.26-.47.14-.06c.11.19.21.4.33.61Zm9-32.11c-.55.29-1.12.58-1.66.92a21.63,21.63,0,0,0-1.24-1.87c.6-.31,1.24-.67,1.87-1.08.33.68.69,1.35,1.09,2ZM97.36,269.62a18.76,18.76,0,0,0-7.54-10.3,16.48,16.48,0,0,0,12.44-9.55V251a16.89,16.89,0,0,0,6.21,13,19,19,0,0,0-11.13,5.62ZM113.84,337a23.3,23.3,0,0,0-1.94-3,20.44,20.44,0,0,0,3.95-2.47,19.24,19.24,0,0,0,1.76,3.09,22.73,22.73,0,0,0-3.77,2.37Zm8.46-30.71a21.13,21.13,0,0,0-3.75-5.63,19.15,19.15,0,0,0,5.58-3.56,19.46,19.46,0,0,0,3.38,6.25,20.82,20.82,0,0,0-5.21,3Zm16.75,68.26-.21.1a.41.41,0,0,0-.05-.09c-.1-.2-.21-.39-.33-.59l.24-.11.36.69Zm-9.91-97.85a19.36,19.36,0,0,0-6.78-9.19,16.81,16.81,0,0,0,11.57-8.79V259a17,17,0,0,0,5.48,12.4A20,20,0,0,0,129.14,276.66Zm18,66.29c-.3.17-.61.33-.91.52a21.22,21.22,0,0,0-1.37-2c.44-.21.88-.45,1.3-.69a19.77,19.77,0,0,0,1.15,2.12Zm6.1-30.55a20.73,20.73,0,0,0-2.23-3.19,19.86,19.86,0,0,0,3.31-1.85,23.57,23.57,0,0,0,1.66,3.29A21.2,21.2,0,0,0,153.21,312.4Zm7.47-30.64a20.1,20.1,0,0,0-5.21-6.35,17,17,0,0,0,6.79-3.69,20.94,20.94,0,0,0,3,7,23.22,23.22,0,0,0-4.63,3Zm6.25-28.58a16.82,16.82,0,0,0-7.83-9.11,17,17,0,0,0,13-6.24,18.88,18.88,0,0,0,4,9.14,21.14,21.14,0,0,0-9.19,6.21Zm21,65.3c-.36.18-.73.37-1.08.58l-.1-.18c-.13-.25-.26-.5-.41-.74l.1-.07c.33-.17.66-.36,1-.55.17.31.33.64.52,1Zm6.7-30.2a24.21,24.21,0,0,0-1.7-2.68,21.33,21.33,0,0,0,2.81-1.81,20,20,0,0,0,1.68,2.91,23.49,23.49,0,0,0-2.81,1.58Zm7.63-30.18a21.55,21.55,0,0,0-3.74-5.56,19,19,0,0,0,5.81-3.88,19.42,19.42,0,0,0,3.46,6.5,21.11,21.11,0,0,0-5.55,2.94Zm-.64-38.86a16.38,16.38,0,0,0,12.12-9V211a17,17,0,0,0,5.89,12.82,19.51,19.51,0,0,0-10.51,5.42,19,19,0,0,0-7.52-10ZM219.7,326.63l-.79.43a1.14,1.14,0,0,1-.1-.19l-.5-.89.14-.07.72-.4c.19.37.37.73.58,1.1Zm6.7-30.48a20.17,20.17,0,0,0-1.67-2.6,22.62,22.62,0,0,0,3-1.94,20.72,20.72,0,0,0,1.62,2.91,22.08,22.08,0,0,0-2.93,1.63Zm7.76-29.94a20.91,20.91,0,0,0-3.56-5.37,19.64,19.64,0,0,0,5-3.14,20.18,20.18,0,0,0,3.18,5.81,21.68,21.68,0,0,0-4.6,2.7Zm.68-38.56a17,17,0,0,0,10.92-8.3,16.71,16.71,0,0,0,4.94,11.57,20.36,20.36,0,0,0-9.76,5,19.3,19.3,0,0,0-6.12-8.23Zm16.77,107c-.27.15-.56.28-.84.45,0-.07-.06-.14-.09-.2-.13-.25-.26-.49-.4-.73l.16-.08.77-.42h0c.15.3.32.62.49.92ZM258.49,304a23.92,23.92,0,0,0-1.71-2.65,19.27,19.27,0,0,0,2.47-1.55,20.18,20.18,0,0,0,1.62,2.91,23.14,23.14,0,0,0-2.4,1.29Zm4.3-102A16.92,16.92,0,0,0,248,210.7a17.08,17.08,0,0,0-9.87-15.09c.24,0,.48.07.73.07a16.55,16.55,0,0,0,15.13-9.9c0,.43-.12.85-.12,1.29A16.82,16.82,0,0,0,262.88,202Zm3,71.86a20.55,20.55,0,0,0-2.69-4.16,20.53,20.53,0,0,0,4.85-3.13,20.11,20.11,0,0,0,2.58,4.5,22.15,22.15,0,0,0-4.77,2.79Zm7.95-30.43a20.42,20.42,0,0,0-6-8.17,16.89,16.89,0,0,0,7.05-4.31,20.22,20.22,0,0,0,4.44,9.2A20.37,20.37,0,0,0,273.76,243.4Zm9.09,99.18-.32.17-.09-.17a3.75,3.75,0,0,0-.24-.44h.05l.33-.18c.11.21.21.42.33.61ZM279,214.18A16.87,16.87,0,0,0,270.65,204h.07a16.88,16.88,0,0,0,13.58-6.78A18.39,18.39,0,0,0,289,207.52a20.44,20.44,0,0,0-9.94,6.63Zm12.46,96.49a14.37,14.37,0,0,0-1.39.76c-.36-.62-.73-1.19-1.11-1.73a17,17,0,0,0,1.69-1c.33.68.66,1.28,1,1.83Zm6.15-29.92a22.57,22.57,0,0,0-2.3-3.43,19.86,19.86,0,0,0,3.61-2.26,20.79,20.79,0,0,0,1.94,3.71,20.57,20.57,0,0,0-3.25,2Zm7.53-30.34a20.61,20.61,0,0,0-3-4.6,20,20,0,0,0,5.82-3.52,20.35,20.35,0,0,0,2.73,4.85,20.73,20.73,0,0,0-5.54,3.25Zm8.42-30.69a20.33,20.33,0,0,0-4.76-7.23,18.43,18.43,0,0,0,8.05-5.58,17.87,17.87,0,0,0,4.56,8.63,20,20,0,0,0-7.85,4.15Zm9.94,98.91c-.3.16-.61.31-.92.49a1.28,1.28,0,0,0-.11-.2c-.13-.27-.28-.54-.43-.8l.11-.07.89-.49h0c.18.34.35.68.54,1Zm6.79-30.45a27.17,27.17,0,0,0-1.54-2.45,20.19,20.19,0,0,0,2.63-1.68,20.65,20.65,0,0,0,1.52,2.67,21.21,21.21,0,0,0-2.62,1.4Zm-9.52-96.89a18.35,18.35,0,0,0-7.89-11.63A16.78,16.78,0,0,0,326,169.85v1.24a16.67,16.67,0,0,0,7.42,13.78,18,18,0,0,0-12.59,6.35ZM338,257.82a21.92,21.92,0,0,0-3-4.54A20.19,20.19,0,0,0,340,250a20.65,20.65,0,0,0,2.91,5.13,20.5,20.5,0,0,0-4.9,2.63Zm7.41-29.8a20,20,0,0,0-5.17-7.75,18.33,18.33,0,0,0,8.8-6.17,17.81,17.81,0,0,0,4.85,9.45,20,20,0,0,0-8.49,4.41Zm10,98.4-1,.5-.06-.14-.39-.7.14-.08c.28-.14.58-.31.87-.48.15.29.3.58.46.87Zm6.84-30.27a24.52,24.52,0,0,0-1.6-2.53,21,21,0,0,0,2.73-1.74,20.76,20.76,0,0,0,1.57,2.75,24.24,24.24,0,0,0-2.71,1.45Zm-9.76-96.09a18.1,18.1,0,0,0-8.26-12.46,16.79,16.79,0,0,0,13.84-10.42c-.06.6-.1,1.21-.1,1.83a16.64,16.64,0,0,0,7.95,14.1A17.85,17.85,0,0,0,352.49,200ZM370,265.92a21.46,21.46,0,0,0-3.14-4.78,20,20,0,0,0,5.32-3.54,19.09,19.09,0,0,0,3.05,5.47,20.75,20.75,0,0,0-5.24,2.78ZM371.72,228a17.68,17.68,0,0,0,9.22-6.49,17.77,17.77,0,0,0,5.23,10.23,19.59,19.59,0,0,0-8.83,4.59,19.77,19.77,0,0,0-5.63-8.39Zm15.36,106.51-.49.26c0-.07-.07-.14-.11-.2-.11-.22-.23-.43-.36-.65l.14-.06c.14-.07.28-.14.41-.22h0c.14.28.29.56.44.84ZM394,303.8a20.13,20.13,0,0,0-1.47-2.28,22.41,22.41,0,0,0,2.81-1.81,21.77,21.77,0,0,0,1.39,2.56,24,24,0,0,0-2.74,1.46Zm-9.86-95.35a17.9,17.9,0,0,0-8.64-12.84,16.63,16.63,0,0,0,14.88-11.74,16.48,16.48,0,0,0,7.76,17.26,17.7,17.7,0,0,0-14,7.25ZM401.87,274a21.31,21.31,0,0,0-3.37-5.12,19.43,19.43,0,0,0,5.62-3.78,19.45,19.45,0,0,0,3.25,5.92,20.93,20.93,0,0,0-5.51,2.91Zm7.26-29.31a19.57,19.57,0,0,0-5.76-8.61,17.5,17.5,0,0,0,8.1-5,19.3,19.3,0,0,0,5,9.3,19.41,19.41,0,0,0-7.33,4.2Zm6.6-30.41a17.89,17.89,0,0,0-8.51-10.91,16.42,16.42,0,0,0,14.12-9.46V195a17,17,0,0,0,5.88,12.83,19.26,19.26,0,0,0-11.5,6.41ZM418.5,342.7l-.05-.12-.18-.34h0l.2-.1h0l.24.44Zm8.65-32c-.35.18-.71.36-1.06.56a24,24,0,0,0-1.32-2c.48-.24,1-.51,1.41-.8a21.23,21.23,0,0,0,1.17,2.15Zm5.91-29.84a21.31,21.31,0,0,0-2.83-4.09,19.46,19.46,0,0,0,3.87-2.32,21.39,21.39,0,0,0,2.16,4.4,22.21,22.21,0,0,0-3.21,1.93Zm7-30.28a19.53,19.53,0,0,0-3.59-5.18,19.51,19.51,0,0,0,7.6-4.58A19,19,0,0,0,447,246.5a21.43,21.43,0,0,0-6.93,4Zm11,99.88-.49.25a2,2,0,0,1-.11-.2l.15-.08.39-.2.1.2Zm8.58-31.65c-.34.17-.69.36-1,.55l-.13-.23c-.18-.36-.38-.74-.59-1.09L458,318c.33-.18.66-.37,1-.57l.09.18c.2.39.39.8.63,1.19ZM449,221a19.62,19.62,0,0,0-6.53-9.48,16.93,16.93,0,0,0,11.17-8.86v.23a16.86,16.86,0,0,0,6.14,12.91A19.21,19.21,0,0,0,449,221Zm17.21,67a22.27,22.27,0,0,0-1.36-2.24,23.06,23.06,0,0,0,2.46-1.54,20.34,20.34,0,0,0,1.37,2.4,20.81,20.81,0,0,0-2.48,1.38Zm7.85-30.7a21.58,21.58,0,0,0-3.4-5.06,19.29,19.29,0,0,0,4.64-3.1,20,20,0,0,0,3.05,5.82,21.32,21.32,0,0,0-4.3,2.34Zm9.06,101-.62.33-.09-.19c-.09-.17-.17-.34-.26-.5l.16-.09a5,5,0,0,0,.51-.27v.06c.12.21.23.43.34.63Zm-2.65-130.23a19.5,19.5,0,0,0-6.7-8.91,16.56,16.56,0,0,0,10.34-6.87,18.18,18.18,0,0,0,4.85,11,20.36,20.36,0,0,0-8.5,4.81Zm9.69,99.46c-.26-.52-.55-1-.86-1.53a23.2,23.2,0,0,0,2-1.25c.28.56.57,1.13.91,1.68-.72.37-1.39.7-2,1.1Zm8.16-30.87a22.16,22.16,0,0,0-1.94-3.11,20.41,20.41,0,0,0,2.91-1.89,20.34,20.34,0,0,0,2,3.28A21.32,21.32,0,0,0,498.29,296.74Zm7.57-30.82a20.79,20.79,0,0,0-3-4.7,20.55,20.55,0,0,0,5.16-3.46,19.15,19.15,0,0,0,3.06,5.36,20.77,20.77,0,0,0-5.18,2.75Zm2.26-37.79a18.24,18.24,0,0,0,9-6.63,17,17,0,0,0,5.34,10,19.67,19.67,0,0,0-9.19,4.51A20.08,20.08,0,0,0,508.12,228.13Zm7,138.17-.79.42a1.28,1.28,0,0,0-.11-.2,6.27,6.27,0,0,0-.29-.58l.19-.09.64-.36v.06l.38.72Zm7-30.59a24,24,0,0,0-1.3-2.12,24.68,24.68,0,0,0,2.29-1.46,23.15,23.15,0,0,0,1.31,2.33,23,23,0,0,0-2.28,1.25Zm7.75-30.5a21.26,21.26,0,0,0-2.29-3.62,21.66,21.66,0,0,0,4.38-2.91,19.53,19.53,0,0,0,2.43,4,22.29,22.29,0,0,0-4.51,2.49Zm8-30.15a20.75,20.75,0,0,0-3.8-6.25,19.48,19.48,0,0,0,6.09-4.13,19.25,19.25,0,0,0,4,7,19.94,19.94,0,0,0-6.31,3.38Zm.88-39.44a17.23,17.23,0,0,0,10-7.37A17.37,17.37,0,0,0,554.84,240a19,19,0,0,0-9.87,5,19.4,19.4,0,0,0-6.24-9.31ZM547,374.22l-.74.38c0-.06-.07-.13-.11-.2s-.19-.38-.3-.56l.16-.08c.2-.11.41-.2.62-.33h0c.13.24.25.49.39.74Zm6.94-30.56a22.12,22.12,0,0,0-1.39-2.21c.61-.32,1.2-.65,1.76-1a20.89,20.89,0,0,0,1.27,2.32,9.16,9.16,0,0,0-1.63.86Zm7.3-31.09a21.11,21.11,0,0,0-2.51-3.72,18.63,18.63,0,0,0,3.88-2.44,21.56,21.56,0,0,0,2.1,4.08,21.74,21.74,0,0,0-3.46,2.08Zm7.35-30.06a19.84,19.84,0,0,0-4-5.82,19.22,19.22,0,0,0,6.79-4.1,19.6,19.6,0,0,0,3.32,6.29,20.88,20.88,0,0,0-6.11,3.62Zm1.54-38.71a17.48,17.48,0,0,0,11.15-8.15,16.79,16.79,0,0,0,5.65,11.63,19.81,19.81,0,0,0-10.6,5.4,19.14,19.14,0,0,0-6.19-8.89ZM579,382.25c-.24.12-.47.25-.68.37a1.51,1.51,0,0,1-.11-.22c-.1-.18-.19-.38-.3-.56l.19-.1.57-.31h0c.12.25.25.5.39.74Zm7-30.6c-.29-.54-.58-1.09-.92-1.62.77-.43,1.51-.9,2.23-1.4.3.59.62,1.19,1,1.77a21.68,21.68,0,0,0-2.27,1.24Zm8.24-30.89a22.52,22.52,0,0,0-2.11-3.41,20.74,20.74,0,0,0,2.91-1.94A20.88,20.88,0,0,0,597.2,319a20.22,20.22,0,0,0-3,1.75Zm7.33-30.87a21.53,21.53,0,0,0-3.36-5.13,19.62,19.62,0,0,0,5.67-3.81,19.4,19.4,0,0,0,3.29,5.93,20.52,20.52,0,0,0-5.59,3Zm.79-38.72a17,17,0,0,0,11.49-9.89c0,.48-.06,1-.06,1.44a16.34,16.34,0,0,0,6.14,12.76,19.33,19.33,0,0,0-11,5,19.89,19.89,0,0,0-6.57-9.36Zm7.82,139.45-.1-.21-.34-.64.1,0,.81-.46v0c.14.29.28.57.43.83l-.89.48Zm7.76-30.87a24,24,0,0,0-1.47-2.37,20,20,0,0,0,2.55-1.63,18.36,18.36,0,0,0,1.47,2.59,25.83,25.83,0,0,0-2.57,1.43Zm7.76-30.35a20.85,20.85,0,0,0-2.39-3.81,21.74,21.74,0,0,0,4.32-2.83,20.59,20.59,0,0,0,2.5,4.12,21.05,21.05,0,0,0-4.49,2.51Zm7.92-30.72a20.75,20.75,0,0,0-3.88-6.21,19.3,19.3,0,0,0,6.16-4.21,19.15,19.15,0,0,0,4,7.08A20.27,20.27,0,0,0,633.59,298.68Zm8.56,100c0-.06-.07-.12-.09-.19l-.45-.81.07,0c.28-.14.57-.31.85-.47h0c.17.34.35.69.54,1l-.92.51Zm7.61-30.89a19.49,19.49,0,0,0-1.6-2.52,21.48,21.48,0,0,0,2.73-1.75,20.14,20.14,0,0,0,1.57,2.75,24,24,0,0,0-2.7,1.53Zm7.69-30.22a21.27,21.27,0,0,0-2.9-4.49,20.17,20.17,0,0,0,5.44-3.64,18.66,18.66,0,0,0,3,5.18A21.3,21.3,0,0,0,657.45,337.54Zm3.24-37.05a19.11,19.11,0,0,0,7.85-5.47,17.56,17.56,0,0,0,5.16,8.64,19.42,19.42,0,0,0-8.47,4.37,20.21,20.21,0,0,0-4.53-7.54Zm13.58,106-.29.14s-.07-.12-.1-.19c-.13-.23-.26-.49-.41-.73h.09l.29-.15,0,.08c.15.29.29.58.45.85Zm7.08-31.36a21.77,21.77,0,0,0-1.29-1.94,18.69,18.69,0,0,0,2.37-1.47,23,23,0,0,0,1.19,2.18A23.62,23.62,0,0,0,681.35,375.09Zm7.76-29.94a21.31,21.31,0,0,0-3.29-4.84,19.44,19.44,0,0,0,4.44-2.77,20.72,20.72,0,0,0,2.72,5.24A21.58,21.58,0,0,0,689.11,345.15ZM695.89,315a19.29,19.29,0,0,0-5.13-7,17.8,17.8,0,0,0,8.59-5.33,19.18,19.18,0,0,0,3.92,8,21,21,0,0,0-7.4,4.3Zm18.27,68.12a19.44,19.44,0,0,0-1.24-2,20.4,20.4,0,0,0,1.83-1.18,18.76,18.76,0,0,0,1.2,2.2,18.54,18.54,0,0,0-1.81,1ZM721.52,353a20.17,20.17,0,0,0-2.29-3.63,21.34,21.34,0,0,0,4.77-3.21,19.56,19.56,0,0,0,2.51,4.19,21.11,21.11,0,0,0-5,2.6Zm3.88-36.85a18.94,18.94,0,0,0,7.76-6,17.06,17.06,0,0,0,5.33,9.11,19.65,19.65,0,0,0-8.8,4,20.85,20.85,0,0,0-4.36-7.22Zm13.31,106-.68.36-.1-.18c-.1-.19-.19-.4-.3-.59l.22-.11.54-.29h0c.12.24.24.49.37.72Zm7-30.89a21.51,21.51,0,0,0-1.37-2.18,19.6,19.6,0,0,0,2.61-1.72,20.18,20.18,0,0,0,1.38,2.49A25.35,25.35,0,0,0,745.7,391.33Zm-9-95.81a19,19,0,0,0-7.62-12.45,16.87,16.87,0,0,0,12.6-10.6,15.58,15.58,0,0,0,9.34,17c-.38,0-.74-.11-1.13-.11a16.94,16.94,0,0,0-13.16,6.2Zm16.77,65.93a21.16,21.16,0,0,0-3.43-5.19,19.94,19.94,0,0,0,5.53-3.88,19.1,19.1,0,0,0,3.37,6.18,20.55,20.55,0,0,0-5.44,2.92Zm7-28.94a19.62,19.62,0,0,0-6.41-9.33,17.38,17.38,0,0,0,10.38-7.66,17.26,17.26,0,0,0,5.95,12,19,19,0,0,0-9.89,5Zm17.2,67.07a22,22,0,0,0-1.8-2.78,21.47,21.47,0,0,0,3.59-2.45,19,19,0,0,0,1.94,3.35A22.47,22.47,0,0,0,777.7,399.58Zm7.75-28.85a20.45,20.45,0,0,0-4-6.55,19.1,19.1,0,0,0,6.2-4.23,18.93,18.93,0,0,0,4.16,7.4A19.79,19.79,0,0,0,785.45,370.73Zm6.89-29.79a19.36,19.36,0,0,0-6.44-9.56,17.39,17.39,0,0,0,11.52-9.12v.2a16.36,16.36,0,0,0,6.46,13A18.83,18.83,0,0,0,792.34,340.94Zm17,66.63A23.31,23.31,0,0,0,807,404.1a19.35,19.35,0,0,0,3.12-2,21.69,21.69,0,0,0,2,3.93A20.81,20.81,0,0,0,809.38,407.57Zm6.78-29.41a20,20,0,0,0-4-5.82,19,19,0,0,0,6.9-4.18,19,19,0,0,0,3.35,6.34,21.2,21.2,0,0,0-6.27,3.69Zm7.76-29.69a19,19,0,0,0-7.52-9.91,16.3,16.3,0,0,0,12.46-9.65c0,.49-.06,1-.06,1.51A16.75,16.75,0,0,0,834.56,343a19.59,19.59,0,0,0-10.62,5.44Zm17.57,67a21.83,21.83,0,0,0-1.65-2.59,21.34,21.34,0,0,0,2.74-1.77A19.55,19.55,0,0,0,844.2,414a21.51,21.51,0,0,0-2.69,1.51Zm7.6-30.07a21.25,21.25,0,0,0-3.38-5.12,19.44,19.44,0,0,0,5.82-3.92,19,19,0,0,0,3.28,6,20.8,20.8,0,0,0-5.7,3.07Zm7.33-29.09a19.81,19.81,0,0,0-6.62-9.52,17,17,0,0,0,11.29-9.15v.71a16.67,16.67,0,0,0,6.17,12.89,19.19,19.19,0,0,0-10.82,5.08Zm17,67.24a21.45,21.45,0,0,0-1.77-2.75,20.54,20.54,0,0,0,3.5-2.34,20,20,0,0,0,1.82,3.18,23.62,23.62,0,0,0-3.53,1.92Zm7.84-29.3a21.11,21.11,0,0,0-3.93-6.27,19.17,19.17,0,0,0,7.68-5.95,17,17,0,0,0,4.63,8.33,19.9,19.9,0,0,0-8.36,3.9Zm20.36-33.12a17,17,0,0,0-13,6.05,19.14,19.14,0,0,0-7.76-12.6,16.7,16.7,0,0,0,12.61-11.43,16.23,16.23,0,0,0,9.43,18.08c-.36,0-.79-.09-1.24-.09Zm11,42.16a20.19,20.19,0,0,0-6.11-8.73,17.26,17.26,0,0,0,9.32-7,17.74,17.74,0,0,0,5.38,11.3,19.75,19.75,0,0,0-8.53,4.43Zm30.89,6.6a19.73,19.73,0,0,0-5.1-6.64,17.45,17.45,0,0,0,8.37-5.35,19.07,19.07,0,0,0,3.69,8,21.47,21.47,0,0,0-6.9,4Zm33.55,7.29a21.56,21.56,0,0,0-3.73-5.57,19.07,19.07,0,0,0,7.4-5.91,17,17,0,0,0,4,7.9,20.9,20.9,0,0,0-7.61,3.59Z"/><path class="cls-1" d="M179,350.63l-.2.1v-.05h0l.21-.11v.06Z"/><path class="cls-1" d="M243,366.56v-.06H243v.06Z"/><path class="cls-1" d="M314.8,350.52v-.06h.06v.05Z"/><path class="cls-1" d="M706.6,414.2a4.83,4.83,0,0,0-.59.32h0l-.12-.25.16-.07.54-.28h0l.13.23Z"/></svg>