<?xml version="1.0" standalone="no"?>
<!DOCTYPE svg PUBLIC "-//W3C//DTD SVG 20010904//EN"
 "http://www.w3.org/TR/2001/REC-SVG-20010904/DTD/svg10.dtd">
<svg version="1.0" xmlns="http://www.w3.org/2000/svg"
 width="976.000000pt" height="976.000000pt" viewBox="0 0 976.000000 976.000000"
 preserveAspectRatio="xMidYMid meet">
<metadata>
Created by potrace 1.11, written by Peter Selinger 2001-2013
</metadata>
<g transform="translate(0.000000,976.000000) scale(0.100000,-0.100000)"
fill="#000000" stroke="none">
<path d="M4791 9123 c-24 -8 -62 -34 -85 -57 -39 -39 -113 -153 -109 -168 1
-3 -4 -12 -12 -18 -8 -7 -15 -16 -15 -20 0 -4 -52 -95 -115 -204 -63 -108
-127 -218 -142 -244 -45 -80 -83 -146 -102 -177 -10 -16 -29 -50 -43 -75 -74
-132 -113 -195 -120 -198 -5 -2 -6 -7 -3 -12 3 -4 -2 -13 -10 -20 -8 -7 -15
-16 -15 -21 0 -5 -26 -53 -58 -106 -32 -54 -62 -105 -66 -113 -4 -8 -12 -24
-19 -35 -17 -29 -108 -183 -132 -226 -11 -19 -42 -75 -70 -123 -27 -48 -55
-95 -60 -104 -6 -9 -28 -48 -50 -87 -22 -38 -46 -79 -52 -90 -7 -11 -16 -28
-19 -37 -3 -10 -10 -18 -14 -18 -5 0 -13 -12 -19 -27 -6 -16 -22 -48 -37 -73
-14 -25 -60 -103 -102 -175 -41 -71 -103 -177 -137 -235 -33 -58 -64 -112 -68
-120 -4 -8 -15 -28 -26 -45 -10 -16 -27 -46 -38 -65 -84 -148 -85 -151 -88
-209 -3 -60 24 -158 46 -171 6 -4 11 -11 11 -16 0 -12 47 -94 66 -116 8 -10
12 -18 7 -18 -4 0 -3 -6 3 -12 12 -16 148 -247 204 -348 11 -19 28 -48 39 -65
10 -16 22 -37 26 -45 4 -8 44 -79 90 -157 46 -78 83 -147 83 -153 0 -5 4 -10
8 -10 4 0 15 -15 23 -32 14 -30 134 -238 180 -313 10 -16 23 -39 28 -50 5 -12
34 -63 65 -113 31 -51 56 -95 56 -98 0 -3 8 -18 19 -32 10 -15 29 -47 43 -72
14 -25 36 -63 48 -85 13 -22 37 -64 54 -94 17 -29 46 -79 64 -110 18 -31 35
-64 39 -73 3 -10 9 -18 14 -18 5 0 9 -4 9 -10 0 -5 14 -32 30 -61 17 -28 32
-56 33 -62 1 -9 -330 -12 -1288 -13 l-1290 0 -51 -23 c-68 -30 -111 -82 -181
-221 -10 -19 -21 -37 -24 -40 -3 -3 -19 -30 -35 -60 -16 -30 -32 -56 -36 -58
-5 -2 -8 -10 -8 -18 0 -8 -4 -14 -8 -14 -4 0 -13 -12 -19 -27 -12 -29 -54
-104 -63 -113 -3 -3 -14 -21 -25 -40 -10 -19 -29 -53 -42 -75 -12 -22 -26 -47
-29 -55 -4 -8 -13 -22 -19 -30 -7 -8 -25 -37 -40 -65 -14 -27 -35 -63 -45 -80
-10 -16 -29 -50 -42 -75 -13 -25 -25 -47 -28 -50 -6 -6 -93 -157 -168 -290
-14 -25 -36 -61 -49 -80 -12 -19 -23 -40 -23 -46 0 -7 -3 -14 -7 -16 -8 -3
-16 -17 -73 -118 -16 -30 -35 -62 -40 -70 -5 -8 -67 -114 -136 -235 -70 -121
-134 -231 -142 -245 -9 -14 -15 -28 -14 -32 1 -5 -2 -8 -8 -8 -5 0 -10 -4 -10
-9 0 -4 -35 -68 -78 -142 -43 -74 -94 -161 -112 -194 -18 -33 -36 -62 -39 -65
-4 -3 -22 -36 -41 -75 -31 -62 -35 -79 -34 -143 1 -40 6 -78 12 -84 7 -7 12
-18 12 -25 0 -17 30 -54 73 -89 19 -16 59 -37 82 -44 29 -7 9312 -4 9359 4 95
16 169 80 203 176 34 95 9 169 -137 410 -15 25 -39 66 -53 91 -39 72 -52 94
-57 99 -6 6 -49 84 -64 117 -6 13 -14 23 -18 23 -5 0 -8 4 -8 9 0 5 -20 44
-45 85 -25 42 -45 78 -45 81 0 2 -25 44 -55 94 -30 50 -55 95 -55 101 0 5 -4
10 -10 10 -5 0 -10 5 -10 11 0 5 -26 54 -57 107 -32 53 -65 111 -73 127 -8 17
-17 32 -21 35 -3 3 -12 17 -20 32 -17 33 -65 117 -180 315 -49 83 -97 167
-108 186 -10 19 -25 45 -33 58 -7 13 -15 26 -18 29 -8 8 -48 81 -62 113 -7 15
-16 27 -20 27 -4 0 -8 4 -8 10 0 5 -22 47 -49 92 -27 46 -58 99 -68 118 -11
19 -97 168 -190 330 -94 162 -185 320 -202 350 -17 30 -36 62 -41 70 -13 21
-60 103 -100 175 -18 33 -37 62 -42 63 -4 2 -6 8 -2 13 3 5 0 9 -5 9 -6 0 -11
4 -11 9 0 7 -184 333 -210 371 -6 8 -13 22 -17 30 -4 8 -24 43 -45 78 -21 34
-38 65 -38 67 0 3 -17 34 -38 68 -66 110 -73 122 -79 140 -3 9 -9 17 -14 17
-5 0 -9 4 -9 10 0 5 -22 47 -49 92 -27 46 -59 101 -71 123 -12 22 -72 126
-133 230 -120 208 -125 215 -187 325 -24 41 -51 87 -61 101 -10 14 -16 29 -12
33 3 3 1 6 -5 6 -7 0 -12 5 -12 10 0 6 -33 65 -73 133 -40 67 -87 147 -104
177 -17 30 -72 127 -123 215 -98 169 -117 202 -158 275 -14 25 -36 62 -49 82
-13 21 -37 64 -54 95 -17 32 -36 61 -43 65 -6 4 -8 8 -4 8 5 0 -12 33 -37 72
-25 40 -45 78 -45 85 0 7 -3 13 -7 13 -5 0 -13 10 -19 23 -13 27 -120 212
-142 247 -9 14 -17 27 -17 30 -1 9 -58 105 -73 123 -8 9 -11 17 -6 17 5 0 5 4
-1 8 -5 4 -21 27 -34 52 -14 25 -27 47 -30 50 -3 3 -15 23 -27 45 -12 22 -44
80 -73 128 -28 49 -51 93 -51 98 0 5 -4 9 -10 9 -5 0 -10 4 -10 9 0 8 -22 47
-71 129 -9 15 -27 48 -41 73 -46 82 -53 94 -58 99 -6 6 -18 28 -61 108 -17 31
-35 62 -39 67 -5 6 -23 37 -41 70 -18 33 -35 62 -38 65 -3 3 -13 19 -21 35 -8
17 -17 32 -20 35 -5 5 -16 25 -74 135 -11 22 -24 42 -27 45 -4 3 -16 21 -26
40 -11 19 -35 62 -54 95 -18 33 -39 66 -46 73 -7 8 -18 23 -24 34 -6 11 -38
33 -72 49 -71 33 -135 37 -206 12z"/>
</g>
</svg>
